<svg xmlns="http://www.w3.org/2000/svg" width="1454" height="962.522" viewBox="0 0 1454 962.522">
    <defs>
        <clipPath id="2zj7xerd6a">
            <path data-name="Rectangle 39" style="fill:none" d="M0 0h1441v869.492H0z"/>
        </clipPath>
    </defs>
    <path d="M3 1014.627v-894.4s42.716 17.26 122.27 38.155a63.866 63.866 0 0 1 104.914-9.424 89.347 89.347 0 0 1 137.071 6.942 44.934 44.934 0 0 1 72.133 11.137 105.467 105.467 0 0 1 13.443-.857 104.058 104.058 0 0 1 66.129 23.589 125.014 125.014 0 0 1 146.53-42.019 149.921 149.921 0 0 1 213.94-22.181 106.569 106.569 0 0 1 152.207 88.531C1301.768 183.062 1457 120.222 1457 120.222v894.4z" transform="translate(-3 -87.637)" style="opacity:.298;fill:#ffdd80"/>
    <path data-name="cloud" d="M3 1029.022V120s35.861 21.619 117.022 46.508A63.267 63.267 0 0 1 228 148.444a88.507 88.507 0 0 1 135.752 6.879 44.511 44.511 0 0 1 71.438 11.026 104.485 104.485 0 0 1 13.31-.849 103.033 103.033 0 0 1 59.464 18.776 102.774 102.774 0 0 1 129.183-31.356 178.023 178.023 0 0 1 238.9-22.651A164.9 164.9 0 0 1 1006.5 66.5c81.911 0 149.882 59.51 162.793 137.526C1362.439 168.677 1443 120 1443 120v909.023z" transform="translate(11 -66.501)" style="fill:#ffdd80"/>
    <g data-name="Group 94" style="mix-blend-mode:soft-light;isolation:isolate">
        <g data-name="Group 93" style="clip-path:url(#2zj7xerd6a)" transform="translate(13 92.228)">
            <path data-name="Path 134" d="M238.538 572.862c5.357-9.016 15.539-16.36 26.45-14.267 4.789 1.028 10.006 2.023 13.253 6.128a4.339 4.339 0 0 1-1.18 6.238c-2.013 1.238-4.446.532-6.364-.359-7.8-3.476-11.275-13.337-6.954-20.835 3.086-5.589 9.136-8.281 15.081-9.384 8.548-1.635 17.555 2.688 19.722 11.53 1.973 6.775-3.613 9.038-9.218 6.711a11.166 11.166 0 0 1-5.362-3.832c-6.2-8.151-8.23-20.891 1.523-27.245a17.274 17.274 0 0 1 15.69-1.588 2.453 2.453 0 0 1 1.216.973.16.16 0 0 1-.056.221c-.111.073-.193-.022-.262-.1a4.8 4.8 0 0 0-2.44-.944 17.166 17.166 0 0 0-13 3.042c-7.906 5.986-5.588 16.774.051 23.572 1.518 2.189 5.853 3.808 8.093 3.042.966-.525.626-1.857.395-2.972-2.211-9.543-12.976-11.56-21.148-8.207-11.526 3.745-13.6 18.584-2.481 24.241 1.573.776 3.346 1.293 4.569.552 3.3-2.379-.817-5.849-3.408-6.944-13.689-6.619-25.694-1.7-33.878 10.594-.094.195-.424.021-.3-.171" transform="translate(991.31 -456.451)" style="fill:#a7181b"/>
            <path data-name="Path 135" d="M312 478.823c5.357-9.016 15.539-16.36 26.45-14.267 4.789 1.028 10.006 2.023 13.253 6.128a4.339 4.339 0 0 1-1.18 6.238c-2.013 1.238-4.446.532-6.364-.359-7.8-3.476-11.275-13.337-6.954-20.835 3.086-5.59 9.136-8.281 15.081-9.384 8.548-1.635 17.555 2.688 19.722 11.53 1.973 6.774-3.613 9.038-9.218 6.711a11.168 11.168 0 0 1-5.362-3.832c-6.2-8.151-8.23-20.891 1.523-27.245a17.274 17.274 0 0 1 15.69-1.589 2.454 2.454 0 0 1 1.216.973.16.16 0 0 1-.056.221c-.111.074-.193-.022-.262-.1a4.8 4.8 0 0 0-2.44-.944 17.165 17.165 0 0 0-13 3.042c-7.906 5.986-5.588 16.774.051 23.572 1.518 2.189 5.853 3.808 8.093 3.042.966-.525.626-1.857.395-2.972-2.211-9.543-12.976-11.56-21.148-8.207-11.526 3.745-13.6 18.585-2.481 24.241 1.573.776 3.346 1.293 4.569.552 3.3-2.378-.817-5.849-3.408-6.944-13.689-6.619-25.694-1.7-33.878 10.594-.094.195-.424.021-.3-.171" transform="translate(221.459 305.761)" style="fill:#a7181b"/>
            <path data-name="Path 136" d="M403.363 166.044c5.357-9.016 15.539-16.36 26.45-14.267 4.789 1.028 10.006 2.023 13.253 6.128a4.339 4.339 0 0 1-1.18 6.238c-2.013 1.238-4.446.532-6.364-.359-7.8-3.476-11.275-13.337-6.954-20.835 3.086-5.59 9.136-8.281 15.081-9.384 8.548-1.635 17.555 2.688 19.722 11.53 1.973 6.774-3.613 9.038-9.218 6.711a11.167 11.167 0 0 1-5.362-3.832c-6.2-8.151-8.23-20.891 1.523-27.243a17.269 17.269 0 0 1 15.69-1.59 2.453 2.453 0 0 1 1.216.973.16.16 0 0 1-.056.221c-.111.074-.193-.022-.262-.1a4.8 4.8 0 0 0-2.44-.944 17.165 17.165 0 0 0-13 3.042c-7.906 5.986-5.588 16.774.051 23.572 1.518 2.189 5.853 3.808 8.093 3.042.966-.525.626-1.857.395-2.972-2.211-9.543-12.976-11.56-21.148-8.207-11.526 3.745-13.6 18.585-2.481 24.241 1.573.776 3.346 1.293 4.569.552 3.3-2.378-.817-5.849-3.408-6.944-13.689-6.619-25.694-1.7-33.878 10.594-.094.195-.424.021-.3-.171" transform="translate(286.314 83.73)" style="fill:#a7181b"/>
            <path data-name="Path 159" d="M403.363 166.044c5.357-9.016 15.539-16.36 26.45-14.267 4.789 1.028 10.006 2.023 13.253 6.128a4.339 4.339 0 0 1-1.18 6.238c-2.013 1.238-4.446.532-6.364-.359-7.8-3.476-11.275-13.337-6.954-20.835 3.086-5.59 9.136-8.281 15.081-9.384 8.548-1.635 17.555 2.688 19.722 11.53 1.973 6.774-3.613 9.038-9.218 6.711a11.167 11.167 0 0 1-5.362-3.832c-6.2-8.151-8.23-20.891 1.523-27.243a17.269 17.269 0 0 1 15.69-1.59 2.453 2.453 0 0 1 1.216.973.16.16 0 0 1-.056.221c-.111.074-.193-.022-.262-.1a4.8 4.8 0 0 0-2.44-.944 17.165 17.165 0 0 0-13 3.042c-7.906 5.986-5.588 16.774.051 23.572 1.518 2.189 5.853 3.808 8.093 3.042.966-.525.626-1.857.395-2.972-2.211-9.543-12.976-11.56-21.148-8.207-11.526 3.745-13.6 18.585-2.481 24.241 1.573.776 3.346 1.293 4.569.552 3.3-2.378-.817-5.849-3.408-6.944-13.689-6.619-25.694-1.7-33.878 10.594-.094.195-.424.021-.3-.171" transform="translate(966.314 25.49)" style="fill:#a7181b"/>
            <path data-name="Path 137" d="M384.78 385.737c5.357-9.016 15.539-16.36 26.45-14.267 4.789 1.028 10.006 2.023 13.253 6.128a4.339 4.339 0 0 1-1.18 6.238c-2.013 1.238-4.446.532-6.364-.359-7.8-3.476-11.275-13.337-6.954-20.835 3.086-5.59 9.136-8.281 15.081-9.384 8.548-1.635 17.555 2.688 19.722 11.53 1.973 6.774-3.613 9.038-9.218 6.711a11.168 11.168 0 0 1-5.362-3.832c-6.2-8.151-8.23-20.891 1.523-27.245a17.274 17.274 0 0 1 15.69-1.589 2.454 2.454 0 0 1 1.216.973.16.16 0 0 1-.056.221c-.111.074-.193-.022-.262-.1a4.8 4.8 0 0 0-2.44-.944 17.165 17.165 0 0 0-13 3.042c-7.906 5.986-5.588 16.774.051 23.572 1.518 2.189 5.853 3.808 8.093 3.042.966-.525.626-1.857.4-2.972-2.211-9.543-12.976-11.56-21.148-8.207-11.526 3.745-13.6 18.585-2.481 24.241 1.573.776 3.346 1.293 4.569.552 3.3-2.378-.817-5.849-3.408-6.944-13.689-6.619-25.694-1.7-33.878 10.594-.094.195-.424.021-.3-.171" transform="translate(273.122 239.683)" style="fill:#a7181b"/>
            <path data-name="Path 138" d="M532.994 412.882c-2.625 14.845-12.658 24.555-28.156 23.675-4.131.1-10.307-2.982-7.036-7.893 1.424-1.883 3.948-2.112 6.058-1.978 8.534.4 15.355 8.322 14.057 16.878-.841 6.33-5.5 11.036-10.635 14.226-5.316 3.184-12.475 4.278-17.919.73-2.763-1.91-5.234-4.088-6.229-7.482-1.2-5.913 6.716-7.154 10.948-6.111a8.883 8.883 0 0 1 3.17 1.311c11.331 6.969 16.492 21.243 4.193 30.135-3.112 1.9-6.81 3.4-10.487 2.874a1.6 1.6 0 0 1-.739-.354.161.161 0 0 1-.027-.226c.077-.108.19-.048.279-.007 3.478.651 7.325-1.532 10.059-3.551a13.648 13.648 0 0 0 2.867-18.827 25.521 25.521 0 0 0-8.944-7.672c-2.113-.8-6.166-.72-7.633.655-.71.841.092 1.956.713 2.912 5.53 8.084 16.293 6.048 22.685-.048 9.373-7.681 5.9-22.256-6.508-23.483-1.747-.15-3.587.014-4.456 1.147-2.207 3.416 2.89 5.152 5.7 5.231 15.158 1.185 24.554-7.763 27.7-22.192.017-.215.388-.174.339.051" transform="translate(342.873 292.955)" style="fill:#a7181b"/>
            <path data-name="Path 162" d="M532.994 412.882c-2.625 14.845-12.658 24.555-28.156 23.675-4.131.1-10.307-2.982-7.036-7.893 1.424-1.883 3.948-2.112 6.058-1.978 8.534.4 15.355 8.322 14.057 16.878-.841 6.33-5.5 11.036-10.635 14.226-5.316 3.184-12.475 4.278-17.919.73-2.763-1.91-5.234-4.088-6.229-7.482-1.2-5.913 6.716-7.154 10.948-6.111a8.883 8.883 0 0 1 3.17 1.311c11.331 6.969 16.492 21.243 4.193 30.135-3.112 1.9-6.81 3.4-10.487 2.874a1.6 1.6 0 0 1-.739-.354.161.161 0 0 1-.027-.226c.077-.108.19-.048.279-.007 3.478.651 7.325-1.532 10.059-3.551a13.648 13.648 0 0 0 2.867-18.827 25.521 25.521 0 0 0-8.944-7.672c-2.113-.8-6.166-.72-7.633.655-.71.841.092 1.956.713 2.912 5.53 8.084 16.293 6.048 22.685-.048 9.373-7.681 5.9-22.256-6.508-23.483-1.747-.15-3.587.014-4.456 1.147-2.207 3.416 2.89 5.152 5.7 5.231 15.158 1.185 24.554-7.763 27.7-22.192.017-.215.388-.174.339.051" transform="translate(728.774 136.193)" style="fill:#a7181b"/>
            <path data-name="Path 139" d="M319.281 15.229c9.912 5.9 17.967 17.107 15.654 29.1-1.135 5.243-2.235 10.984-6.735 14.529-2.054 1.529-5.456 1.1-6.74-1.279-1.339-2.185-.559-4.83.41-6.916a16.363 16.363 0 0 1 22.793-7.585c6.1 3.377 9.049 10.016 10.244 16.522 1.117 6.674-.612 14.392-6.391 18.511-3.02 2.033-6.231 3.686-10.045 3.348-6.4-1.151-4.423-9.586-1.746-13.414a9.6 9.6 0 0 1 2.575-2.681c11.622-8.794 28.216-8.4 32.4 7.662a19.273 19.273 0 0 1-.783 11.157 2.643 2.643 0 0 1-1.065 1.325.168.168 0 0 1-.169-.289c.734-.557.92-1.816 1.115-2.719 1.18-6.793-1.438-14.855-7.693-18.2-7.055-4.237-15.738-.91-21.744 3.789a8.747 8.747 0 0 0-2.963 4.323c-.667 1.965-1.469 5.169.628 5.56 22.172-1.368 13.99-40.134-6.786-34.026a15.129 15.129 0 0 0-8.6 7.57c-.857 1.741-1.445 3.726-.6 5.123 2.657 3.716 6.586-.848 7.8-3.762 7.274-15.245 1.871-28.288-11.726-37.352-.192-.092-.021-.422.171-.3" transform="translate(226.466 10.79)" style="fill:#a7181b"/>
            <path data-name="Path 140" d="M453.544 230.792c9.912 5.9 17.967 17.107 15.654 29.1-1.134 5.246-2.238 10.988-6.735 14.532-2.054 1.529-5.456 1.1-6.74-1.279-1.339-2.185-.559-4.83.41-6.916a16.363 16.363 0 0 1 22.793-7.585c6.1 3.377 9.049 10.016 10.244 16.522 1.117 6.674-.612 14.392-6.391 18.511-3.02 2.033-6.231 3.687-10.045 3.346-6.4-1.149-4.423-9.584-1.746-13.412a9.6 9.6 0 0 1 2.575-2.681c11.622-8.794 28.216-8.4 32.4 7.662a19.272 19.272 0 0 1-.783 11.157 2.643 2.643 0 0 1-1.065 1.325.168.168 0 0 1-.169-.289c.734-.557.92-1.816 1.115-2.719 1.18-6.793-1.438-14.855-7.693-18.2-7.055-4.237-15.738-.91-21.744 3.789a8.747 8.747 0 0 0-2.963 4.323c-.667 1.965-1.469 5.169.628 5.56 22.172-1.368 13.99-40.134-6.788-34.026a15.131 15.131 0 0 0-8.6 7.57c-.857 1.741-1.445 3.726-.6 5.123 2.657 3.716 6.586-.848 7.8-3.762 7.274-15.245 1.871-28.288-11.726-37.352-.192-.094-.021-.422.171-.3" transform="translate(321.775 163.811)" style="fill:#a7181b"/>
            <path data-name="Path 141" d="M171.638 187.03c9.912 5.9 17.967 17.107 15.654 29.1-1.134 5.246-2.238 10.988-6.735 14.532-2.054 1.529-5.456 1.1-6.74-1.279-1.339-2.185-.559-4.83.41-6.916a16.363 16.363 0 0 1 22.793-7.585c6.1 3.377 9.049 10.016 10.244 16.522 1.117 6.674-.612 14.392-6.392 18.511-3.02 2.033-6.231 3.686-10.045 3.346-6.4-1.149-4.423-9.584-1.746-13.412a9.6 9.6 0 0 1 2.575-2.681c11.622-8.794 28.216-8.4 32.4 7.662a19.272 19.272 0 0 1-.783 11.157 2.643 2.643 0 0 1-1.065 1.325.168.168 0 0 1-.169-.289c.734-.557.92-1.816 1.115-2.719 1.18-6.793-1.438-14.855-7.693-18.2-7.055-4.237-15.738-.91-21.744 3.789a8.747 8.747 0 0 0-2.963 4.323c-.667 1.965-1.469 5.169.628 5.56 22.172-1.368 13.99-40.134-6.786-34.026a15.129 15.129 0 0 0-8.6 7.57c-.857 1.741-1.445 3.726-.6 5.123 2.657 3.716 6.586-.848 7.8-3.762 7.274-15.245 1.871-28.288-11.726-37.352-.191-.094-.021-.422.171-.3" transform="translate(121.659 132.746)" style="fill:#a7181b"/>
            <path data-name="Path 163" d="M171.638 187.03c9.912 5.9 17.967 17.107 15.654 29.1-1.134 5.246-2.238 10.988-6.735 14.532-2.054 1.529-5.456 1.1-6.74-1.279-1.339-2.185-.559-4.83.41-6.916a16.363 16.363 0 0 1 22.793-7.585c6.1 3.377 9.049 10.016 10.244 16.522 1.117 6.674-.612 14.392-6.392 18.511-3.02 2.033-6.231 3.686-10.045 3.346-6.4-1.149-4.423-9.584-1.746-13.412a9.6 9.6 0 0 1 2.575-2.681c11.622-8.794 28.216-8.4 32.4 7.662a19.272 19.272 0 0 1-.783 11.157 2.643 2.643 0 0 1-1.065 1.325.168.168 0 0 1-.169-.289c.734-.557.92-1.816 1.115-2.719 1.18-6.793-1.438-14.855-7.693-18.2-7.055-4.237-15.738-.91-21.744 3.789a8.747 8.747 0 0 0-2.963 4.323c-.667 1.965-1.469 5.169.628 5.56 22.172-1.368 13.99-40.134-6.786-34.026a15.129 15.129 0 0 0-8.6 7.57c-.857 1.741-1.445 3.726-.6 5.123 2.657 3.716 6.586-.848 7.8-3.762 7.274-15.245 1.871-28.288-11.726-37.352-.191-.094-.021-.422.171-.3" transform="translate(1136.659 549.491)" style="fill:#a7181b"/>
            <path data-name="Path 142" d="M150.025 431c9.912 5.9 17.967 17.107 15.654 29.1-1.134 5.246-2.238 10.988-6.735 14.532-2.054 1.529-5.456 1.1-6.74-1.279-1.339-2.185-.559-4.83.41-6.916a16.363 16.363 0 0 1 22.793-7.585c6.1 3.377 9.049 10.016 10.244 16.523 1.117 6.674-.612 14.392-6.391 18.511-3.02 2.033-6.231 3.686-10.045 3.346-6.4-1.149-4.423-9.584-1.746-13.412a9.6 9.6 0 0 1 2.575-2.681c11.622-8.794 28.216-8.4 32.4 7.662a19.271 19.271 0 0 1-.783 11.157 2.643 2.643 0 0 1-1.065 1.325.168.168 0 0 1-.169-.289c.734-.557.92-1.816 1.115-2.719 1.18-6.793-1.438-14.855-7.693-18.2-7.055-4.237-15.738-.91-21.744 3.789a8.747 8.747 0 0 0-2.963 4.323c-.667 1.965-1.469 5.169.628 5.56 22.172-1.368 13.99-40.134-6.788-34.026a15.131 15.131 0 0 0-8.6 7.57c-.857 1.741-1.445 3.726-.6 5.123 2.657 3.716 6.586-.848 7.8-3.762 7.274-15.245 1.871-28.288-11.726-37.352-.191-.094-.021-.422.171-.3" transform="translate(106.317 305.932)" style="fill:#a7181b"/>
            <path data-name="Path 143" d="M510.8 23.27c-5.9 9.912-17.107 17.967-29.1 15.654-5.246-1.134-10.988-2.238-14.532-6.735-1.529-2.054-1.1-5.456 1.279-6.74 2.185-1.339 4.83-.559 6.916.41a16.363 16.363 0 0 1 7.585 22.793c-3.377 6.1-10.016 9.049-16.522 10.244-6.674 1.117-14.392-.612-18.511-6.391-2.033-3.02-3.687-6.231-3.346-10.045 1.149-6.4 9.584-4.423 13.412-1.746a9.6 9.6 0 0 1 2.681 2.575c8.794 11.622 8.4 28.216-7.662 32.4a19.272 19.272 0 0 1-11.157-.783 2.643 2.643 0 0 1-1.325-1.065.168.168 0 0 1 .289-.169c.557.734 1.816.92 2.719 1.115 6.793 1.18 14.855-1.436 18.2-7.693 4.237-7.055.91-15.738-3.789-21.744a8.747 8.747 0 0 0-4.323-2.963c-1.965-.667-5.169-1.469-5.56.629 1.368 22.17 40.134 13.988 34.026-6.79a15.131 15.131 0 0 0-7.57-8.6c-1.741-.857-3.726-1.445-5.123-.6-3.716 2.657.848 6.586 3.762 7.8C488.4 42.1 501.44 36.7 510.5 23.1c.094-.192.422-.021.3.171" transform="translate(312.697 16.338)" style="fill:#a7181b"/>
            <path data-name="Path 144" d="M158.4 313.612c-5.9 9.912-17.107 17.967-29.1 15.654-5.244-1.134-10.988-2.238-14.532-6.735-1.529-2.054-1.1-5.456 1.279-6.74 2.185-1.339 4.83-.559 6.916.41a16.363 16.363 0 0 1 7.585 22.793c-3.377 6.1-10.016 9.049-16.522 10.244-6.674 1.117-14.392-.612-18.511-6.392-2.033-3.02-3.686-6.231-3.346-10.045 1.149-6.4 9.584-4.423 13.412-1.746a9.6 9.6 0 0 1 2.681 2.575c8.794 11.622 8.4 28.216-7.662 32.4a19.272 19.272 0 0 1-11.157-.783 2.643 2.643 0 0 1-1.325-1.065.168.168 0 0 1 .289-.169c.557.734 1.816.92 2.719 1.115 6.793 1.18 14.855-1.436 18.2-7.693 4.237-7.055.91-15.738-3.789-21.744a8.746 8.746 0 0 0-4.323-2.963c-1.965-.667-5.169-1.469-5.56.628 1.368 22.172 40.134 13.99 34.026-6.788a15.131 15.131 0 0 0-7.57-8.6c-1.741-.857-3.726-1.445-5.123-.6-3.716 2.657.848 6.586 3.762 7.8 15.245 7.274 28.288 1.871 37.352-11.726.094-.192.422-.021.3.171" transform="translate(62.538 222.442)" style="fill:#a7181b"/>
            <path data-name="Path 145" d="M294.839 93.433c-5.9 9.912-17.107 17.967-29.1 15.654-5.244-1.134-10.988-2.238-14.532-6.735-1.529-2.054-1.1-5.456 1.279-6.74 2.185-1.339 4.83-.559 6.916.41a16.363 16.363 0 0 1 7.585 22.793c-3.377 6.1-10.016 9.049-16.522 10.244-6.674 1.117-14.392-.612-18.511-6.391-2.033-3.02-3.686-6.231-3.346-10.045 1.149-6.4 9.584-4.423 13.412-1.746a9.6 9.6 0 0 1 2.681 2.575c8.794 11.622 8.4 28.216-7.662 32.4a19.271 19.271 0 0 1-11.157-.783 2.643 2.643 0 0 1-1.325-1.065.168.168 0 0 1 .289-.169c.557.734 1.816.92 2.719 1.115 6.793 1.18 14.855-1.436 18.2-7.693 4.237-7.055.91-15.738-3.789-21.744a8.747 8.747 0 0 0-4.323-2.963c-1.965-.667-5.169-1.469-5.561.628 1.368 22.172 40.134 13.99 34.026-6.788a15.131 15.131 0 0 0-7.57-8.6c-1.741-.857-3.726-1.445-5.123-.6-3.716 2.657.848 6.586 3.762 7.8 15.245 7.274 28.288 1.871 37.352-11.726.094-.191.422-.021.3.171" transform="translate(159.393 66.144)" style="fill:#a7181b"/>
            <path data-name="Path 146" d="M597.865 153.778c-5.9 9.912-17.107 17.967-29.1 15.654-5.246-1.134-10.988-2.238-14.532-6.735-1.529-2.054-1.1-5.456 1.279-6.74 2.185-1.339 4.83-.559 6.916.41a16.363 16.363 0 0 1 7.585 22.793c-3.377 6.1-10.016 9.049-16.522 10.244-6.674 1.117-14.392-.612-18.511-6.392-2.033-3.02-3.686-6.231-3.346-10.045 1.149-6.4 9.584-4.423 13.412-1.746a9.6 9.6 0 0 1 2.681 2.575c8.794 11.622 8.4 28.216-7.662 32.4a19.257 19.257 0 0 1-11.157-.783 2.643 2.643 0 0 1-1.325-1.065.168.168 0 0 1 .289-.169c.557.734 1.816.92 2.719 1.115 6.793 1.18 14.855-1.436 18.2-7.693 4.237-7.055.91-15.738-3.789-21.744a8.747 8.747 0 0 0-4.322-2.963c-1.965-.667-5.169-1.469-5.561.628 1.368 22.172 40.134 13.99 34.026-6.786a15.128 15.128 0 0 0-7.57-8.6c-1.741-.857-3.726-1.445-5.123-.6-3.716 2.657.848 6.586 3.762 7.8 15.245 7.274 28.288 1.871 37.352-11.726.092-.191.422-.021.3.171" transform="translate(374.501 108.981)" style="fill:#a7181b"/>
            <path data-name="Path 147" d="M121.434 519.424c-5.9 9.912-17.107 17.967-29.1 15.654-5.246-1.134-10.988-2.238-14.532-6.735-1.529-2.054-1.1-5.456 1.279-6.74 2.185-1.339 4.83-.559 6.916.41a16.363 16.363 0 0 1 7.588 22.787c-3.377 6.1-10.016 9.049-16.522 10.244-6.674 1.117-14.392-.612-18.511-6.392-2.033-3.02-3.686-6.231-3.346-10.045 1.149-6.4 9.584-4.423 13.412-1.746a9.6 9.6 0 0 1 2.681 2.575c8.794 11.622 8.4 28.216-7.662 32.4a19.258 19.258 0 0 1-11.157-.783A2.643 2.643 0 0 1 51.155 570a.168.168 0 0 1 .289-.169c.557.733 1.816.92 2.719 1.115 6.793 1.18 14.855-1.436 18.2-7.693 4.237-7.055.91-15.738-3.789-21.744a8.746 8.746 0 0 0-4.323-2.963c-1.965-.667-5.169-1.469-5.56.628 1.368 22.172 40.134 13.99 34.026-6.787a15.129 15.129 0 0 0-7.57-8.6c-1.741-.857-3.726-1.445-5.123-.6-3.716 2.657.848 6.586 3.762 7.8 15.245 7.274 28.288 1.871 37.352-11.726.094-.192.422-.021.3.171" transform="translate(1050.298 -322.279)" style="fill:#a7181b"/>
            <path data-name="Path 148" d="M625.91 313.612c-5.9 9.912-17.107 17.967-29.1 15.654-5.244-1.134-10.988-2.238-14.532-6.735-1.529-2.054-1.1-5.456 1.279-6.74 2.185-1.339 4.83-.559 6.916.41a16.363 16.363 0 0 1 7.585 22.793c-3.377 6.1-10.016 9.049-16.522 10.244-6.674 1.117-14.392-.612-18.511-6.392-2.033-3.02-3.687-6.231-3.346-10.045 1.149-6.4 9.584-4.423 13.412-1.746a9.6 9.6 0 0 1 2.681 2.575c8.794 11.622 8.4 28.216-7.662 32.4a19.272 19.272 0 0 1-11.157-.783 2.643 2.643 0 0 1-1.325-1.065.168.168 0 0 1 .289-.169c.557.734 1.816.92 2.719 1.115 6.793 1.18 14.855-1.436 18.2-7.693 4.237-7.055.91-15.738-3.789-21.744a8.747 8.747 0 0 0-4.323-2.963c-1.965-.667-5.169-1.469-5.561.628 1.368 22.172 40.134 13.99 34.026-6.788a15.131 15.131 0 0 0-7.57-8.6c-1.741-.857-3.726-1.445-5.123-.6-3.715 2.657.848 6.586 3.762 7.8 15.245 7.274 28.288 1.871 37.352-11.726.094-.192.422-.021.3.171" transform="translate(394.409 222.442)" style="fill:#a7181b"/>
            <path data-name="Path 161" d="M625.91 313.612c-5.9 9.912-17.107 17.967-29.1 15.654-5.244-1.134-10.988-2.238-14.532-6.735-1.529-2.054-1.1-5.456 1.279-6.74 2.185-1.339 4.83-.559 6.916.41a16.363 16.363 0 0 1 7.585 22.793c-3.377 6.1-10.016 9.049-16.522 10.244-6.674 1.117-14.392-.612-18.511-6.392-2.033-3.02-3.687-6.231-3.346-10.045 1.149-6.4 9.584-4.423 13.412-1.746a9.6 9.6 0 0 1 2.681 2.575c8.794 11.622 8.4 28.216-7.662 32.4a19.272 19.272 0 0 1-11.157-.783 2.643 2.643 0 0 1-1.325-1.065.168.168 0 0 1 .289-.169c.557.734 1.816.92 2.719 1.115 6.793 1.18 14.855-1.436 18.2-7.693 4.237-7.055.91-15.738-3.789-21.744a8.747 8.747 0 0 0-4.323-2.963c-1.965-.667-5.169-1.469-5.561.628 1.368 22.172 40.134 13.99 34.026-6.788a15.131 15.131 0 0 0-7.57-8.6c-1.741-.857-3.726-1.445-5.123-.6-3.715 2.657.848 6.586 3.762 7.8 15.245 7.274 28.288 1.871 37.352-11.726.094-.192.422-.021.3.171" transform="translate(842.782 242.288)" style="fill:#a7181b"/>
            <path data-name="Path 149" d="M471.755 519.424c-5.9 9.912-17.107 17.967-29.1 15.654-5.246-1.134-10.988-2.238-14.532-6.735-1.529-2.054-1.1-5.456 1.279-6.74 2.185-1.339 4.83-.559 6.916.41a16.363 16.363 0 0 1 7.585 22.793c-3.377 6.1-10.016 9.049-16.522 10.244-6.674 1.117-14.392-.612-18.511-6.392-2.033-3.02-3.686-6.231-3.346-10.045 1.149-6.4 9.584-4.423 13.412-1.746a9.6 9.6 0 0 1 2.681 2.575c8.794 11.622 8.4 28.216-7.662 32.4a19.258 19.258 0 0 1-11.157-.783 2.643 2.643 0 0 1-1.322-1.059.168.168 0 0 1 .289-.169c.557.733 1.816.92 2.719 1.115 6.793 1.18 14.855-1.436 18.2-7.693 4.237-7.055.91-15.738-3.789-21.744a8.746 8.746 0 0 0-4.323-2.963c-1.965-.667-5.169-1.469-5.561.628 1.368 22.172 40.134 13.99 34.026-6.787a15.129 15.129 0 0 0-7.57-8.6c-1.741-.857-3.726-1.445-5.123-.6-3.716 2.657.848 6.586 3.762 7.8 15.245 7.274 28.288 1.871 37.352-11.726.094-.192.422-.021.3.171" transform="translate(917.98 -142.571)" style="fill:#a7181b"/>
            <path data-name="Path 150" d="M126.17 95.9c-1.97 16.512-12.258 27.729-29.379 27.79-4.464.363-11.4-2.548-8.17-8.084 1.424-2.132 4.152-2.531 6.451-2.524a16.365 16.365 0 0 1 16.43 17.526c-.511 6.957-5.309 12.41-10.717 16.218-7.821 5.521-18.55 5.371-24.819-2.44-6.327-7.547 2.572-11.74 9.538-10.538a9.6 9.6 0 0 1 3.514 1.216c12.839 6.843 19.438 22.145 6.605 32.636a19.254 19.254 0 0 1-10.461 3.958 2.638 2.638 0 0 1-1.65-.412.169.169 0 0 1 .193-.275c.812.433 2.033.075 2.934-.125 6.665-1.773 12.891-7.523 13.31-14.606.9-8.18-5.762-14.672-12.544-18.161a8.741 8.741 0 0 0-5.166-.882c-2.064.215-5.309.829-4.786 2.9 2.71 5.914 10.153 8.879 16.408 6.74 7.146-2.235 14.365-8.674 15.17-16.428.923-8.124-5.887-15.3-13.992-15.36-1.939-.05-3.989.248-4.9 1.6-2.262 3.967 3.527 5.625 6.679 5.5 16.89.226 26.476-10.141 29.015-26.282 0-.214.374-.195.34.031" transform="translate(52.392 67.946)" style="fill:#a7181b"/>
            <path data-name="Path 151" d="M196 59.6c-11.053-3.307-21.6-12.207-22.28-24.4-.183-5.362-.513-11.2 2.984-15.736 1.619-1.983 5.024-2.4 6.848-.4 1.833 1.792 1.724 4.548 1.291 6.807a16.363 16.363 0 0 1-20.253 12.916c-6.744-1.783-11.218-7.5-13.966-13.523-3.984-8.7-1.859-19.222 6.975-23.943 8.584-4.827 11.063 4.692 8.6 11.318a9.6 9.6 0 0 1-1.842 3.228c-9.093 11.359-25.349 15.025-33.3.477a19.257 19.257 0 0 1-1.961-11.01 2.635 2.635 0 0 1 .708-1.546c.152-.142.376.092.236.238-.576.72-.45 1.985-.417 2.908.513 6.877 5.018 14.057 11.9 15.774 7.876 2.389 15.483-2.96 20.163-8.98a8.754 8.754 0 0 0 1.814-4.922c.169-2.067.164-5.369-1.965-5.237-6.315 1.573-10.6 8.342-9.651 14.884.881 7.435 5.879 15.717 13.351 17.937 7.816 2.406 16.127-2.965 17.677-10.919.405-1.9.491-3.967-.667-5.116-3.483-2.955-6.179 2.43-6.643 5.552-3.334 16.558 5.089 27.89 20.484 33.36.21.044.125.405-.092.33" transform="translate(91.519)" style="fill:#a7181b"/>
            <path data-name="Path 152" d="M280.657 415.639c-11.053-3.307-21.6-12.207-22.28-24.4-.183-5.362-.513-11.2 2.984-15.736 1.619-1.983 5.024-2.4 6.848-.4 1.833 1.792 1.724 4.548 1.291 6.807a16.363 16.363 0 0 1-20.253 12.916c-6.744-1.783-11.218-7.5-13.966-13.523-3.984-8.7-1.859-19.222 6.975-23.943 8.584-4.827 11.063 4.692 8.6 11.318a9.6 9.6 0 0 1-1.842 3.228c-9.093 11.359-25.349 15.025-33.3.477a19.257 19.257 0 0 1-1.961-11.01 2.635 2.635 0 0 1 .708-1.546c.152-.142.376.092.236.238-.576.72-.45 1.985-.417 2.908.513 6.877 5.018 14.057 11.9 15.774 7.876 2.389 15.483-2.96 20.163-8.98a8.754 8.754 0 0 0 1.818-4.916c.169-2.067.164-5.369-1.965-5.237-6.315 1.573-10.6 8.342-9.65 14.884.881 7.435 5.878 15.717 13.351 17.937 7.816 2.406 16.127-2.965 17.677-10.919.405-1.9.491-3.967-.667-5.116-3.483-2.955-6.179 2.43-6.643 5.552-3.334 16.558 5.089 27.89 20.484 33.361.21.043.125.4-.092.328" transform="translate(151.616 252.743)" style="fill:#a7181b"/>
            <path data-name="Path 153" d="M583.534 597.583c-11.052-3.307-21.6-12.207-22.28-24.4-.183-5.362-.513-11.2 2.984-15.736 1.619-1.984 5.024-2.4 6.848-.4 1.833 1.792 1.724 4.548 1.291 6.807a16.364 16.364 0 0 1-20.253 12.916c-6.744-1.783-11.218-7.5-13.966-13.523-3.984-8.7-1.859-19.222 6.974-23.943 8.583-4.827 11.063 4.692 8.6 11.318a9.579 9.579 0 0 1-1.843 3.228c-9.091 11.359-25.347 15.025-33.294.477a19.256 19.256 0 0 1-1.961-11.01 2.636 2.636 0 0 1 .708-1.546c.152-.142.376.092.236.238-.576.72-.45 1.985-.417 2.909.513 6.877 5.018 14.057 11.9 15.773 7.876 2.389 15.483-2.96 20.163-8.98a8.755 8.755 0 0 0 1.818-4.916c.167-2.067.164-5.369-1.965-5.237-6.314 1.573-10.6 8.343-9.65 14.884.88 7.435 5.878 15.717 13.351 17.936 7.816 2.406 16.127-2.965 17.677-10.919.405-1.9.491-3.967-.667-5.116-3.483-2.955-6.179 2.431-6.643 5.552-3.334 16.558 5.089 27.89 20.484 33.361.21.043.125.4-.092.328" transform="translate(730.664 -287.956)" style="fill:#a7181b"/>
            <path data-name="Path 154" d="M67.073 479.834c-11.053-3.307-21.6-12.207-22.28-24.4-.183-5.362-.513-11.2 2.984-15.736 1.619-1.983 5.024-2.4 6.848-.4 1.833 1.792 1.724 4.548 1.291 6.807a16.364 16.364 0 0 1-20.253 12.915c-6.744-1.783-11.218-7.5-13.966-13.523-3.984-8.7-1.859-19.222 6.975-23.943 8.584-4.827 11.063 4.692 8.6 11.318a9.6 9.6 0 0 1-1.842 3.228c-9.093 11.359-25.349 15.025-33.3.477a19.257 19.257 0 0 1-1.961-11.01 2.635 2.635 0 0 1 .708-1.546c.152-.142.376.092.236.238-.576.72-.45 1.985-.417 2.909.513 6.877 5.018 14.057 11.9 15.774 7.876 2.389 15.483-2.96 20.163-8.98a8.754 8.754 0 0 0 1.818-4.916c.169-2.067.164-5.369-1.965-5.237-6.315 1.573-10.6 8.342-9.65 14.884.881 7.435 5.879 15.717 13.351 17.937 7.816 2.406 16.127-2.965 17.677-10.919.405-1.9.491-3.967-.667-5.116-3.483-2.955-6.179 2.431-6.643 5.552-3.334 16.558 5.089 27.89 20.484 33.361.21.043.125.4-.092.328" transform="translate(0 298.313)" style="fill:#a7181b"/>
            <path data-name="Path 155" d="M346.944 326.917c-11.053-3.307-21.6-12.207-22.28-24.4-.183-5.362-.513-11.2 2.984-15.736 1.619-1.983 5.024-2.4 6.848-.4 1.833 1.792 1.724 4.548 1.291 6.807a16.363 16.363 0 0 1-20.253 12.912c-6.744-1.783-11.218-7.5-13.966-13.523-3.984-8.7-1.859-19.222 6.975-23.943 8.584-4.827 11.063 4.692 8.6 11.318a9.6 9.6 0 0 1-1.842 3.228c-9.093 11.359-25.349 15.025-33.3.477a19.257 19.257 0 0 1-1.961-11.01 2.635 2.635 0 0 1 .708-1.546c.152-.142.376.092.236.238-.576.72-.45 1.985-.417 2.909.513 6.877 5.018 14.057 11.9 15.773 7.876 2.389 15.483-2.96 20.163-8.98a8.755 8.755 0 0 0 1.818-4.916c.169-2.067.164-5.369-1.965-5.237-6.315 1.573-10.6 8.342-9.651 14.884.881 7.435 5.879 15.717 13.351 17.936 7.816 2.406 16.127-2.965 17.677-10.919.405-1.9.491-3.967-.667-5.114-3.483-2.956-6.18 2.43-6.643 5.55-3.334 16.558 5.089 27.89 20.484 33.361.21.043.123.4-.092.328" transform="translate(198.671 189.762)" style="fill:#a7181b"/>
            <path data-name="Path 156" d="M73.756 277.645c-14.375-8.363-20.583-22.259-13.843-38 1.44-4.244 6.867-9.456 10.664-4.29 1.39 2.154.674 4.817-.246 6.923a16.365 16.365 0 0 1-22.61 8.122c-6.181-3.232-9.281-9.8-10.629-16.276-1.276-6.645.272-14.4 5.95-18.656 2.97-2.1 6.144-3.834 9.965-3.582 6.421 1 4.649 9.476 2.062 13.368A9.6 9.6 0 0 1 52.561 228c-11.412 9.066-28.011 9.066-32.578-6.894a19.264 19.264 0 0 1 .522-11.172 2.636 2.636 0 0 1 1.033-1.351.168.168 0 0 1 .176.286c-.72.574-.877 1.836-1.05 2.744-1.019 6.821 1.787 14.818 8.12 18.013 7.154 4.069 15.755.537 21.649-4.3a8.754 8.754 0 0 0 2.861-4.391c.621-1.98 1.346-5.2-.759-5.543-22.134 1.891-13.038 40.452 7.59 33.855a15.126 15.126 0 0 0 8.416-7.771c.816-1.761 1.358-3.758.48-5.135-2.743-3.652-6.564 1-7.7 3.945-6.911 15.411-1.2 28.326 12.605 37.063.195.091.031.422-.164.3" transform="translate(13.776 148.049)" style="fill:#a7181b"/>
            <path data-name="Path 187" d="M73.756 277.645c-14.375-8.363-20.583-22.259-13.843-38 1.44-4.244 6.867-9.456 10.664-4.29 1.39 2.154.674 4.817-.246 6.923a16.365 16.365 0 0 1-22.61 8.122c-6.181-3.232-9.281-9.8-10.629-16.276-1.276-6.645.272-14.4 5.95-18.656 2.97-2.1 6.144-3.834 9.965-3.582 6.421 1 4.649 9.476 2.062 13.368A9.6 9.6 0 0 1 52.561 228c-11.412 9.066-28.011 9.066-32.578-6.894a19.264 19.264 0 0 1 .522-11.172 2.636 2.636 0 0 1 1.033-1.351.168.168 0 0 1 .176.286c-.72.574-.877 1.836-1.05 2.744-1.019 6.821 1.787 14.818 8.12 18.013 7.154 4.069 15.755.537 21.649-4.3a8.754 8.754 0 0 0 2.861-4.391c.621-1.98 1.346-5.2-.759-5.543-22.134 1.891-13.038 40.452 7.59 33.855a15.126 15.126 0 0 0 8.416-7.771c.816-1.761 1.358-3.758.48-5.135-2.743-3.652-6.564 1-7.7 3.945-6.911 15.411-1.2 28.326 12.605 37.063.195.091.031.422-.164.3" transform="translate(166.394 482.995)" style="fill:#a7181b"/>
            <path data-name="Path 160" d="M73.756 277.645c-14.375-8.363-20.583-22.259-13.843-38 1.44-4.244 6.867-9.456 10.664-4.29 1.39 2.154.674 4.817-.246 6.923a16.365 16.365 0 0 1-22.61 8.122c-6.181-3.232-9.281-9.8-10.629-16.276-1.276-6.645.272-14.4 5.95-18.656 2.97-2.1 6.144-3.834 9.965-3.582 6.421 1 4.649 9.476 2.062 13.368A9.6 9.6 0 0 1 52.561 228c-11.412 9.066-28.011 9.066-32.578-6.894a19.264 19.264 0 0 1 .522-11.172 2.636 2.636 0 0 1 1.033-1.351.168.168 0 0 1 .176.286c-.72.574-.877 1.836-1.05 2.744-1.019 6.821 1.787 14.818 8.12 18.013 7.154 4.069 15.755.537 21.649-4.3a8.754 8.754 0 0 0 2.861-4.391c.621-1.98 1.346-5.2-.759-5.543-22.134 1.891-13.038 40.452 7.59 33.855a15.126 15.126 0 0 0 8.416-7.771c.816-1.761 1.358-3.758.48-5.135-2.743-3.652-6.564 1-7.7 3.945-6.911 15.411-1.2 28.326 12.605 37.063.195.091.031.422-.164.3" transform="translate(1082.026 160.054)" style="fill:#a7181b"/>
            <path data-name="Path 157" d="M328.434 163.733c9.912 5.9 17.967 17.107 15.654 29.1-1.134 5.246-2.238 10.988-6.735 14.532-2.052 1.529-5.456 1.1-6.74-1.279-1.339-2.185-.559-4.83.41-6.916a16.363 16.363 0 0 1 22.792-7.585c6.1 3.377 9.049 10.016 10.244 16.522 1.117 6.674-.612 14.392-6.391 18.511-3.02 2.033-6.231 3.686-10.045 3.346-6.4-1.149-4.422-9.584-1.746-13.412a9.6 9.6 0 0 1 2.575-2.681c11.622-8.794 28.216-8.4 32.4 7.662a19.285 19.285 0 0 1-.781 11.157 2.655 2.655 0 0 1-1.067 1.325.168.168 0 0 1-.169-.289c.735-.557.92-1.816 1.115-2.719 1.18-6.793-1.438-14.855-7.691-18.2-7.057-4.237-15.739-.91-21.746 3.789a8.747 8.747 0 0 0-2.963 4.323c-.665 1.965-1.469 5.169.628 5.56 22.174-1.368 13.992-40.134-6.788-34.026a15.136 15.136 0 0 0-8.6 7.57c-.855 1.741-1.445 3.726-.6 5.123 2.659 3.716 6.586-.848 7.8-3.762 7.274-15.245 1.871-28.288-11.726-37.352-.192-.094-.021-.422.171-.3" transform="translate(232.964 116.208)" style="fill:#a7181b"/>
            <path data-name="Path 158" d="M576.332 42.788c9.912 5.9 17.967 17.107 15.652 29.1-1.132 5.246-2.237 10.989-6.733 14.532-2.054 1.529-5.456 1.1-6.74-1.279-1.339-2.185-.559-4.83.41-6.916a16.363 16.363 0 0 1 22.793-7.585c6.1 3.377 9.049 10.016 10.244 16.522 1.117 6.674-.612 14.392-6.391 18.511-3.02 2.033-6.231 3.686-10.045 3.346-6.4-1.149-4.423-9.584-1.746-13.412a9.6 9.6 0 0 1 2.575-2.681c11.622-8.794 28.216-8.4 32.4 7.662a19.271 19.271 0 0 1-.783 11.157 2.643 2.643 0 0 1-1.065 1.325.168.168 0 0 1-.169-.289c.734-.557.92-1.816 1.115-2.719 1.18-6.793-1.438-14.855-7.693-18.2-7.055-4.237-15.738-.91-21.744 3.789a8.746 8.746 0 0 0-2.963 4.323c-.667 1.965-1.469 5.169.628 5.56 22.172-1.368 13.99-40.134-6.788-34.026a15.131 15.131 0 0 0-8.6 7.57c-.857 1.741-1.445 3.726-.6 5.123 2.657 3.716 6.586-.848 7.8-3.762 7.274-15.245 1.871-28.288-11.726-37.352-.191-.092-.02-.422.171-.3" transform="translate(408.938 30.353)" style="fill:#a7181b"/>
        </g>
    </g>
</svg>
