<svg data-name="5" xmlns="http://www.w3.org/2000/svg" width="66.969" height="63.245" viewBox="0 0 66.969 63.245">
    <defs>
        <clipPath id="q0zzzujy3a">
            <path data-name="Rectangle 23" style="fill:none;stroke:#fff" d="M0 0h66.969v63.245H0z"/>
        </clipPath>
    </defs>
    <g data-name="Group 57" style="clip-path:url(#q0zzzujy3a)">
        <path data-name="Line 32" transform="translate(2.016 62.245)" style="stroke-linecap:round;stroke-linejoin:round;stroke-width:2px;fill:none;stroke:#fff" d="M0 0h60.676"/>
        <path data-name="Rectangle 18" transform="translate(6.379 56.699)" style="stroke-linecap:round;stroke-linejoin:round;stroke-width:2px;fill:none;stroke:#fff" d="M0 0h29.001v5.546H0z"/>
        <path data-name="Path 91" d="M33.832 55.65v-2.759a2.05 2.05 0 0 0-2.05-2.049H10.119a2.05 2.05 0 0 0-2.05 2.049v2.759" style="stroke-linecap:round;stroke-linejoin:round;stroke-width:2px;fill:none;stroke:#fff"/>
        <path data-name="Rectangle 19" transform="rotate(-59.13 30.503 -1.367)" style="stroke-linecap:round;stroke-linejoin:round;stroke-width:2px;fill:none;stroke:#fff" d="M0 0h22.292v17.534H0z"/>
        <path data-name="Rectangle 20" d="M1.1 0h3.649a1.1 1.1 0 0 1 1.1 1.1v18.285a1.1 1.1 0 0 1-1.1 1.1H1.1a1.1 1.1 0 0 1-1.1-1.1V1.1A1.1 1.1 0 0 1 1.1 0z" transform="rotate(-59.13 18.046 -20.284)" style="stroke-linecap:round;stroke-linejoin:round;stroke-width:2px;fill:none;stroke:#fff"/>
        <rect data-name="Rectangle 21" width="5.851" height="20.488" rx="1.102" transform="rotate(-59.13 32.127 4.53)" style="stroke-linecap:round;stroke-linejoin:round;stroke-width:2px;fill:none;stroke:#fff"/>
        <path data-name="Rectangle 22" transform="rotate(-59.136 42.975 -15.358)" style="stroke-linecap:round;stroke-linejoin:round;stroke-width:2px;fill:none;stroke:#fff" d="M0 0h10.429v4.829H0z"/>
        <path data-name="Path 92" d="M42.734 24.4 63.7 35.6a4.653 4.653 0 0 1-4.774 7.988l-19.8-13.161z" style="stroke-linecap:round;stroke-linejoin:round;stroke-width:2px;fill:none;stroke:#fff"/>
        <path data-name="Line 33" transform="translate(1 32.515)" style="stroke-linecap:round;stroke-linejoin:round;stroke-width:2px;fill:none;stroke:#fff" d="M5.93.971 0 0"/>
        <path data-name="Line 34" transform="translate(1.04 37.926)" style="stroke-linecap:round;stroke-linejoin:round;stroke-width:2px;fill:none;stroke:#fff" d="M5.824 0 0 1.479"/>
        <path data-name="Line 35" transform="translate(5.857 41.76)" style="stroke-linecap:round;stroke-linejoin:round;stroke-width:2px;fill:none;stroke:#fff" d="M3.53 0 0 4.863"/>
    </g>
</svg>
