<svg xmlns="http://www.w3.org/2000/svg" width="59.01" height="55.309" viewBox="0 0 59.01 55.309">
    <defs>
        <clipPath id="z5ovcmq93a">
            <path data-name="Rectangle 26" style="fill:none;stroke:#fff" d="M0 0h59.01v55.309H0z"/>
        </clipPath>
    </defs>
    <g data-name="6">
        <g data-name="Group 59" style="clip-path:url(#z5ovcmq93a)">
            <path data-name="Rectangle 24" transform="translate(1 1)" style="stroke-linecap:round;stroke-linejoin:round;stroke-width:2px;fill:none;stroke:#fff" d="M0 0h4.922v53.309H0z"/>
            <path data-name="Path 93" d="M13.874 13.38h0a2.461 2.461 0 0 1-2.461-2.461v-6.9a2.461 2.461 0 1 1 4.922 0v6.9a2.461 2.461 0 0 1-2.461 2.461z" style="stroke-linecap:round;stroke-linejoin:round;stroke-width:2px;fill:none;stroke:#fff"/>
            <path data-name="Path 94" d="M18.8 13.38h0a2.461 2.461 0 0 1-2.461-2.461v-6.9a2.461 2.461 0 0 1 4.922 0v6.9A2.461 2.461 0 0 1 18.8 13.38z" style="stroke-linecap:round;stroke-linejoin:round;stroke-width:2px;fill:none;stroke:#fff"/>
            <path data-name="Path 95" d="M23.69 13.38h0a2.461 2.461 0 0 1-2.461-2.461v-6.9a2.461 2.461 0 1 1 4.922 0v6.9a2.461 2.461 0 0 1-2.461 2.461z" style="stroke-linecap:round;stroke-linejoin:round;stroke-width:2px;fill:none;stroke:#fff"/>
            <path data-name="Path 96" d="M35.009 33.276h0a2.461 2.461 0 0 1-2.461-2.461v-6.9a2.461 2.461 0 0 1 4.922 0v6.9a2.461 2.461 0 0 1-2.461 2.461z" style="stroke-linecap:round;stroke-linejoin:round;stroke-width:2px;fill:none;stroke:#fff"/>
            <path data-name="Path 97" d="M30.087 33.276h0a2.461 2.461 0 0 1-2.461-2.461v-6.9a2.461 2.461 0 0 1 4.922 0v6.9a2.461 2.461 0 0 1-2.461 2.461z" style="stroke-linecap:round;stroke-linejoin:round;stroke-width:2px;fill:none;stroke:#fff"/>
            <path data-name="Path 98" d="M25.166 33.276h0a2.461 2.461 0 0 1-2.466-2.461v-6.9a2.46 2.46 0 1 1 4.921 0v6.9a2.461 2.461 0 0 1-2.455 2.461z" style="stroke-linecap:round;stroke-linejoin:round;stroke-width:2px;fill:none;stroke:#fff"/>
            <path data-name="Path 99" d="M39.931 33.276h0a2.461 2.461 0 0 1-2.461-2.461v-6.9a2.461 2.461 0 0 1 4.922 0v6.9a2.461 2.461 0 0 1-2.461 2.461z" style="stroke-linecap:round;stroke-linejoin:round;stroke-width:2px;fill:none;stroke:#fff"/>
            <path data-name="Path 100" d="M44.825 33.276h0a2.461 2.461 0 0 1-2.461-2.461v-6.9a2.461 2.461 0 0 1 4.922 0v6.9a2.461 2.461 0 0 1-2.461 2.461z" style="stroke-linecap:round;stroke-linejoin:round;stroke-width:2px;fill:none;stroke:#fff"/>
            <path data-name="Path 101" d="M45.061 13.38h0a2.461 2.461 0 0 1-2.461-2.461v-6.9a2.461 2.461 0 0 1 4.922 0v6.9a2.461 2.461 0 0 1-2.461 2.461z" style="stroke-linecap:round;stroke-linejoin:round;stroke-width:2px;fill:none;stroke:#fff"/>
            <path data-name="Rectangle 25" transform="translate(53.088 1)" style="stroke-linecap:round;stroke-linejoin:round;stroke-width:2px;fill:none;stroke:#fff" d="M0 0h4.922v53.309H0z"/>
            <path data-name="Line 36" transform="translate(26.151 7.467)" style="stroke-linecap:round;stroke-linejoin:round;stroke-width:2px;fill:none;stroke:#fff" d="M0 0h16.449"/>
            <path data-name="Line 37" transform="translate(6.089 27.573)" style="stroke-linecap:round;stroke-linejoin:round;stroke-width:2px;fill:none;stroke:#fff" d="M0 0h16.449"/>
            <path data-name="Line 38" transform="translate(47.522 7.467)" style="stroke-linecap:round;stroke-linejoin:round;stroke-width:2px;fill:none;stroke:#fff" d="M0 0h5.566"/>
            <path data-name="Line 39" transform="translate(47.522 27.573)" style="stroke-linecap:round;stroke-linejoin:round;stroke-width:2px;fill:none;stroke:#fff" d="M0 0h5.566"/>
            <path data-name="Line 40" transform="translate(5.922 7.467)" style="stroke-linecap:round;stroke-linejoin:round;stroke-width:2px;fill:none;stroke:#fff" d="M0 0h5.566"/>
            <path data-name="Path 102" d="M45.136 41.348h0a2.461 2.461 0 0 1 2.464 2.461v6.9a2.461 2.461 0 0 1-4.922 0v-6.9a2.461 2.461 0 0 1 2.458-2.461z" style="stroke-linecap:round;stroke-linejoin:round;stroke-width:2px;fill:none;stroke:#fff"/>
            <path data-name="Path 103" d="M40.214 41.348h0a2.461 2.461 0 0 1 2.461 2.461v6.9a2.461 2.461 0 0 1-4.922 0v-6.9a2.461 2.461 0 0 1 2.461-2.461z" style="stroke-linecap:round;stroke-linejoin:round;stroke-width:2px;fill:none;stroke:#fff"/>
            <path data-name="Path 104" d="M35.32 41.348h0a2.461 2.461 0 0 1 2.461 2.461v6.9a2.461 2.461 0 0 1-4.922 0v-6.9a2.461 2.461 0 0 1 2.461-2.461z" style="stroke-linecap:round;stroke-linejoin:round;stroke-width:2px;fill:none;stroke:#fff"/>
            <path data-name="Path 105" d="M13.949 41.348h0a2.461 2.461 0 0 1 2.461 2.461v6.9a2.461 2.461 0 0 1-4.922 0v-6.9a2.461 2.461 0 0 1 2.461-2.461z" style="stroke-linecap:round;stroke-linejoin:round;stroke-width:2px;fill:none;stroke:#fff"/>
            <path data-name="Line 41" transform="translate(16.41 47.261)" style="stroke-linecap:round;stroke-linejoin:round;stroke-width:2px;fill:none;stroke:#fff" d="M16.449 0H0"/>
            <path data-name="Line 42" transform="translate(5.922 47.261)" style="stroke-linecap:round;stroke-linejoin:round;stroke-width:2px;fill:none;stroke:#fff" d="M5.566 0H0"/>
            <path data-name="Line 43" transform="translate(47.522 47.261)" style="stroke-linecap:round;stroke-linejoin:round;stroke-width:2px;fill:none;stroke:#fff" d="M5.566 0H0"/>
        </g>
    </g>
</svg>
