<svg data-name="9" xmlns="http://www.w3.org/2000/svg" width="60.369" height="57.066" viewBox="0 0 60.369 57.066">
    <defs>
        <clipPath id="f5hvgsm47a">
            <path data-name="Rectangle 29" style="fill:none;stroke:#fff" d="M0 0h60.369v57.066H0z"/>
        </clipPath>
    </defs>
    <g data-name="Group 65" style="clip-path:url(#f5hvgsm47a)">
        <path data-name="Path 111" d="m23.694 23.306 6.617 6.643a212.312 212.312 0 0 0 21.445-24.4l-3.285-3.381a209.824 209.824 0 0 0-24.777 21.138z" style="stroke-linecap:round;stroke-linejoin:round;stroke-width:2px;fill:none;stroke:#fff"/>
        <path data-name="Path 112" d="M24.527 24.142s-9.185 9.092-20.542 22.513l3.285 2.909s11.13-9.345 22.269-20.391z" style="stroke-linecap:round;stroke-linejoin:round;stroke-width:2px;fill:none;stroke:#fff"/>
        <path data-name="Path 113" d="m3.985 46.655-2.44 5.725 5.725-2.816z" style="stroke-linecap:round;stroke-linejoin:round;stroke-width:2px;fill:none;stroke:#fff"/>
        <path data-name="Path 114" d="m50.393 7.343 3.616 3.557s-4.974 6.195-17.738 17.645" style="stroke-linecap:round;stroke-linejoin:round;stroke-width:2px;fill:none;stroke:#fff"/>
        <path data-name="Path 115" d="m49.666 2.267.843-.827a1.2 1.2 0 0 1 1.669-.176l.658.67a1.2 1.2 0 0 1-.207 1.666l-.843.827" style="stroke-linecap:round;stroke-linejoin:round;stroke-width:2px;fill:none;stroke:#fff"/>
        <path data-name="Path 116" d="M1.368 52.7s-3.66 5.209 12.107 2.675S34.264 44.108 45.761 48.9s13.608 0 13.608 0" style="stroke-linecap:round;stroke-linejoin:round;stroke-width:2px;fill:none;stroke:#fff"/>
    </g>
</svg>
