<svg data-name="12" xmlns="http://www.w3.org/2000/svg" width="67.463" height="65.914" viewBox="0 0 67.463 65.914">
    <defs>
        <clipPath id="fb0ge6nsta">
            <path data-name="Rectangle 34" style="fill:none;stroke:#fff" d="M0 0h67.463v65.914H0z"/>
        </clipPath>
    </defs>
    <g data-name="Group 72">
        <g data-name="Group 71" style="clip-path:url(#fb0ge6nsta)">
            <path data-name="Path 124" d="M1 24.088v9.432h3.5l1.714-6.757h55.04l1.715 6.757h3.5v-9.432z" style="stroke-linecap:round;stroke-linejoin:round;stroke-width:2px;fill:none;stroke:#fff"/>
        </g>
    </g>
    <g data-name="Group 74">
        <g data-name="Group 73" style="clip-path:url(#fb0ge6nsta)">
            <path data-name="Path 125" d="M60.28 33.52H7.182l-4 6.617h61.1z" style="stroke-linecap:round;stroke-linejoin:round;stroke-width:2px;fill:none;stroke:#fff"/>
            <path data-name="Path 126" d="m59.213 40.137 2.393 24.777h2.674V33.52" style="stroke-linecap:round;stroke-linejoin:round;stroke-width:2px;fill:none;stroke:#fff"/>
            <path data-name="Path 127" d="M7.778 40.137 5.385 64.914H2.71V33.52" style="stroke-linecap:round;stroke-linejoin:round;stroke-width:2px;fill:none;stroke:#fff"/>
            <path data-name="Rectangle 35" transform="translate(25.848 56.936)" style="stroke-linecap:round;stroke-linejoin:round;stroke-width:2px;fill:none;stroke:#fff" d="M0 0h15.767v5.913H0z"/>
        </g>
    </g>
    <path data-name="Line 57" transform="translate(28.546 40.137)" style="stroke-linecap:round;stroke-linejoin:round;stroke-width:2px;fill:none;stroke:#fff" d="M0 0v16.8"/>
    <path data-name="Line 58" transform="translate(38.964 40.137)" style="stroke-linecap:round;stroke-linejoin:round;stroke-width:2px;fill:none;stroke:#fff" d="M0 0v16.8"/>
    <g data-name="Group 76">
        <g data-name="Group 75" style="clip-path:url(#fb0ge6nsta)">
            <path data-name="Line 59" transform="translate(29.579 61.371)" style="stroke-linecap:round;stroke-linejoin:round;stroke-width:2px;fill:none;stroke:#fff" d="M0 0v2.956"/>
            <path data-name="Line 60" transform="translate(33.698 61.371)" style="stroke-linecap:round;stroke-linejoin:round;stroke-width:2px;fill:none;stroke:#fff" d="M0 0v2.956"/>
            <path data-name="Line 61" transform="translate(37.744 61.371)" style="stroke-linecap:round;stroke-linejoin:round;stroke-width:2px;fill:none;stroke:#fff" d="M0 0v2.956"/>
            <path data-name="Path 128" d="m14.469 24.088-.658-7.321s5.516-3.284 19.886-3.284 19.532 3.566 19.532 3.566l-.657 7.039" style="stroke-linecap:round;stroke-linejoin:round;stroke-width:2px;fill:none;stroke:#fff"/>
            <path data-name="Line 62" transform="translate(29.068 1)" style="stroke-linecap:round;stroke-linejoin:round;stroke-width:2px;fill:none;stroke:#fff" d="M0 12.482 31.764 0"/>
            <path data-name="Line 63" transform="translate(2.08 19.385)" style="stroke-linecap:round;stroke-linejoin:round;stroke-width:2px;fill:none;stroke:#fff" d="M0 4.703 11.967 0"/>
            <path data-name="Path 129" d="M53.23 18.785s13.233.329 13.233 5.3" style="stroke-linecap:round;stroke-linejoin:round;stroke-width:2px;fill:none;stroke:#fff"/>
            <path data-name="Line 64" transform="translate(54.084 3.652)" style="stroke-linecap:round;stroke-linejoin:round;stroke-width:2px;fill:none;stroke:#fff" d="m0 0 6.344 16.053"/>
            <path data-name="Line 65" transform="translate(20.522 33.52)" style="stroke-linecap:round;stroke-linejoin:round;stroke-width:2px;fill:none;stroke:#fff" d="M0 0v3.308"/>
            <path data-name="Line 66" transform="translate(23.502 33.52)" style="stroke-linecap:round;stroke-linejoin:round;stroke-width:2px;fill:none;stroke:#fff" d="M0 0v3.308"/>
            <path data-name="Line 67" transform="translate(26.482 33.52)" style="stroke-linecap:round;stroke-linejoin:round;stroke-width:2px;fill:none;stroke:#fff" d="M0 0v3.308"/>
            <path data-name="Line 68" transform="translate(41.97 33.52)" style="stroke-linecap:round;stroke-linejoin:round;stroke-width:2px;fill:none;stroke:#fff" d="M0 0v3.308"/>
            <path data-name="Line 69" transform="translate(44.95 33.52)" style="stroke-linecap:round;stroke-linejoin:round;stroke-width:2px;fill:none;stroke:#fff" d="M0 0v3.308"/>
            <path data-name="Line 70" transform="translate(32.736 33.52)" style="stroke-linecap:round;stroke-linejoin:round;stroke-width:2px;fill:none;stroke:#fff" d="M0 0v3.308"/>
            <path data-name="Line 71" transform="translate(35.716 33.52)" style="stroke-linecap:round;stroke-linejoin:round;stroke-width:2px;fill:none;stroke:#fff" d="M0 0v3.308"/>
            <path data-name="Line 72" transform="translate(53.605 33.52)" style="stroke-linecap:round;stroke-linejoin:round;stroke-width:2px;fill:none;stroke:#fff" d="m0 0 .235 3.308"/>
            <path data-name="Line 73" transform="translate(56.585 33.52)" style="stroke-linecap:round;stroke-linejoin:round;stroke-width:2px;fill:none;stroke:#fff" d="m0 0 .235 3.308"/>
            <path data-name="Line 74" transform="translate(10.902 33.52)" style="stroke-linecap:round;stroke-linejoin:round;stroke-width:2px;fill:none;stroke:#fff" d="M.165 0 0 3.308"/>
            <path data-name="Line 75" transform="translate(13.881 33.52)" style="stroke-linecap:round;stroke-linejoin:round;stroke-width:2px;fill:none;stroke:#fff" d="M.165 0 0 3.308"/>
            <path data-name="Line 76" transform="translate(47.93 33.52)" style="stroke-linecap:round;stroke-linejoin:round;stroke-width:2px;fill:none;stroke:#fff" d="M0 0v3.308"/>
        </g>
    </g>
</svg>
