<svg xmlns="http://www.w3.org/2000/svg" width="14" height="14" viewBox="0 0 14 14">
    <path d="M4.69.268a10.121 10.121 0 0 1 4.62 0 5.936 5.936 0 0 1 4.423 4.422 10.121 10.121 0 0 1 0 4.62 5.936 5.936 0 0 1-4.423 4.423 10.121 10.121 0 0 1-4.62 0A5.936 5.936 0 0 1 .268 9.311a10.121 10.121 0 0 1 0-4.62A5.936 5.936 0 0 1 4.69.268m1.25 8.278a.447.447 0 0 0 .632.632l1.861-1.862a.447.447 0 0 0 0-.632L6.572 4.823a.447.447 0 0 0-.632.632L7.486 7 5.94 8.546z" style="fill:#ffd0de;fill-rule:evenodd"/>
</svg>
