<svg xmlns="http://www.w3.org/2000/svg" width="44.522" height="35.931" viewBox="0 0 44.522 35.931">
    <defs>
        <clipPath id="icsb5c638a">
            <path data-name="Rectangle 63" style="fill:#fff" d="M0 0h44.522v35.931H0z"/>
        </clipPath>
    </defs>
    <g data-name="Group 157" style="clip-path:url(#icsb5c638a)">
        <path data-name="Path 207" d="M0 15.853c2.244-.612 5.994-1.565 7.885.229a1.98 1.98 0 0 1 .592 2.46c-.94 1.19-2.877.348-3.508-.741a6.315 6.315 0 0 1 1.192-7.121 5.86 5.86 0 0 1 3.921-1.607 6.465 6.465 0 0 1 6.331 4.29C14.555 10.2 9.842 8.834 7.1 11.585a5.684 5.684 0 0 0-1.282 4.8 1.681 1.681 0 0 0 1.6 1.477c.134 0 .136-.159.072-.41-.864-2.321-5.447-1.648-7.493-1.6" transform="translate(0 -3.639)" style="fill:#fff"/>
        <path data-name="Path 208" d="m22.385 10.952 4.023-.216c1.955-.215 6.038-.031 7.287-1.64.267-.533-.011-.9-.263-1.488a3.058 3.058 0 0 1-.261-1.179c.151-2.423 3.244-2.115 4.911-1.668a27.01 27.01 0 0 1 10.93 5.605c1.3 1.194 3.981 3.579 2.39 5.479-.852.9-2.191.3-3.11-.134a8.613 8.613 0 0 1-4.322-4.671c-.633-2.023-.224-4.937 1.837-6 3.01-1.134 6.87 2.6 9.135 4.261a6.578 6.578 0 0 0 1.68 1.078 6.672 6.672 0 0 1-1.8-.907c-2.191-1.372-4.412-3.144-6.94-3.749-2.147-.531-3.033 1.347-3.107 3.177-.066 2.926 2.632 5.393 5.329 6.065a.911.911 0 0 0 .275.012h-.006c-.029 0-.041.033-.014.007a.383.383 0 0 0 .175-.227.993.993 0 0 0-.072-.563 8.6 8.6 0 0 0-2.355-2.789A27.149 27.149 0 0 0 37.8 5.93c-1.015-.221-3.382-.895-3.595.53-.027.644.376 1.094.51 1.818a1.828 1.828 0 0 1-.249 1.286c-1.568 2.02-5.736 1.495-8.048 1.552q-2.017-.045-4.03-.164" transform="translate(-12.1 -1.144)" style="fill:#fff"/>
        <path data-name="Path 209" d="M3.267 10.547a1.919 1.919 0 0 1 2.695.436 1.559 1.559 0 0 1-2.695-.436" transform="translate(-1.766 -4.239)" style="fill:#fff"/>
        <path data-name="Path 210" d="M9.73 0a2.993 2.993 0 0 1 2.257 2.262A1.849 1.849 0 0 1 9.73 0" transform="translate(-5.221 1.263)" style="fill:#fff"/>
        <path data-name="Path 211" d="M17.891 60.463c1.293-3.107 4.027-5.94 7.464-6.536 3.573-.8 6.949 1.481 9.41 3.762 2.554 2.314 4.534 4.419 8.15 3.136a10.729 10.729 0 0 0 6.387-6.85c-.633 4.233-4.161 8.248-8.632 8.435-5.642.193-8.433-8.338-15.152-7.424-3.273.394-5.874 2.778-7.626 5.477" transform="translate(-10.934 -30.323)" style="fill:#fff"/>
        <path data-name="Path 212" d="M9.092 70.847a8.652 8.652 0 0 0 8.939 1.221c.971-.358 2.126-.934 3.077-1.324a9.106 9.106 0 0 1-5.115 3.284 6.231 6.231 0 0 1-6.9-3.181" transform="translate(-6.177 -39.502)" style="fill:#fff"/>
        <path data-name="Path 213" d="M79.061 69.228c2.351-2.161 4.819-3.527 6.609-6.163.15 3.354-3.546 5.912-6.609 6.163" transform="translate(-43.998 -35.351)" style="fill:#fff"/>
        <path data-name="Path 214" d="M31.125 46.262c3.219-2.342 8.76-1.248 9.625 3a12.8 12.8 0 0 0-2.072-1.711c-2.256-1.451-4.929-1.37-7.553-1.294" transform="translate(-18.087 -25.616)" style="fill:#fff"/>
    </g>
</svg>
