<svg data-name="7" xmlns="http://www.w3.org/2000/svg" width="70.078" height="54.499" viewBox="0 0 70.078 54.499">
    <defs>
        <clipPath id="riglcx6zza">
            <path data-name="Rectangle 27" style="fill:none;stroke:#fff" d="M0 0h70.078v54.499H0z"/>
        </clipPath>
    </defs>
    <g data-name="Group 61" style="clip-path:url(#riglcx6zza)">
        <path data-name="Path 106" d="M29.847 1 3.005 22.211l37.166 18.207 28.907-21.21z" style="stroke-linecap:round;stroke-linejoin:round;stroke-width:2px;fill:none;stroke:#fff"/>
        <path data-name="Path 107" d="M40.171 40.418a11.511 11.511 0 0 0-2.44 7.508c0 4.881 4.317 8.072 10.511 3s20.836-15.764 20.836-15.764-3.567-3.754 0-7.32c0 0-3.379-5.444 0-8.635z" style="stroke-linecap:round;stroke-linejoin:round;stroke-width:2px;fill:none;stroke:#fff"/>
        <path data-name="Line 44" transform="translate(43.175 27.842)" style="stroke-linecap:round;stroke-linejoin:round;stroke-width:2px;fill:none;stroke:#fff" d="M0 18.771 25.903 0"/>
        <path data-name="Path 108" d="M3.005 22.211a10.722 10.722 0 0 0-1.991 7.1c.167 3.5 2.534 5.444 10.766 9.6 8.955 4.524 28.3 14.015 28.3 14.015" style="stroke-linecap:round;stroke-linejoin:round;stroke-width:2px;fill:none;stroke:#fff"/>
    </g>
</svg>
