<svg xmlns="http://www.w3.org/2000/svg" width="64.908" height="46.825" viewBox="0 0 64.908 46.825">
    <defs>
        <clipPath id="ng9ur04n4a">
            <path data-name="Rectangle 28" style="fill:none;stroke:#fff" d="M0 0h64.908v46.825H0z"/>
        </clipPath>
    </defs>
    <g data-name="8">
        <g data-name="Group 63" style="clip-path:url(#ng9ur04n4a)">
            <path data-name="Path 109" d="M23.179 28.7c1.718 3.223-1.755 8.43-7.758 11.63s-12.263 3.184-13.982-.04S3.194 31.865 9.2 28.664s12.261-3.182 13.979.036z" style="stroke-linecap:round;stroke-linejoin:round;stroke-width:2px;fill:none;stroke:#fff"/>
            <path data-name="Path 110" d="M1.439 40.295s2.792 5.667 10.87 5.527 12.724-7.18 14.835-9.855 9.714-14.5 15.064-18.16A89.834 89.834 0 0 1 57.623 9.5c3.942-1.619 5.983-2.746 6.266-5.42S61.424.491 57.623 1.265A24.168 24.168 0 0 0 46.15 7.107S35.8 18.722 31.086 23.016a33.19 33.19 0 0 1-7.907 5.684" style="stroke-linecap:round;stroke-linejoin:round;stroke-width:2px;fill:none;stroke:#fff"/>
            <path data-name="Line 45" transform="translate(57.757 4.996)" style="stroke-linecap:round;stroke-linejoin:round;stroke-width:2px;fill:none;stroke:#fff" d="M.172 0 0 .106"/>
        </g>
    </g>
</svg>
