<svg xmlns="http://www.w3.org/2000/svg" width="456.989" height="326.392" viewBox="0 0 456.989 326.392">
    <defs>
        <filter id="yb8q3ehpxa" x="0" y="0" width="456.989" height="326.392" filterUnits="userSpaceOnUse">
            <feOffset dx="-10" dy="15"/>
            <feGaussianBlur stdDeviation="25" result="blur"/>
            <feFlood flood-color="#ffbf12" flood-opacity=".745"/>
            <feComposite operator="in" in2="blur"/>
            <feComposite in="SourceGraphic"/>
        </filter>
    </defs>
    <g data-name="365-frame">
        <g style="filter:url(#yb8q3ehpxa)">
            <path data-name="Union 16" d="m87.158 155.528-35.511-26.081-23.967 1.2c-14.064 0-25.406-8.991-25.465-25.465L0 37.643a25.465 25.465 0 0 1 25.465-25.464L253.542 0c14.063 0 20.518 7.524 25.465 25.465l17.068 65.368c4.16 16.717-9.614 26.576-24.818 27.634L86.593 127.7l6.634 23.342A4.2 4.2 0 0 1 89 156.067a3.216 3.216 0 0 1-1.842-.539z" transform="translate(85 80.709)" style="fill:#f48d8b"/>
        </g>
        <path data-name="Union 15" d="m87.158 155.528-35.511-26.081-23.967 1.2c-14.064 0-25.406-8.991-25.465-25.465L0 37.643a25.465 25.465 0 0 1 25.465-25.464L253.542 0c14.063 0 20.518 7.524 25.465 25.465l17.068 65.368c4.16 16.717-9.614 26.576-24.818 27.634l-185.19 9.259 4.711 24.3c.608 2.787-.3 4.2-1.713 4.2a3.444 3.444 0 0 1-1.907-.698z" transform="matrix(.998 -.07 .07 .998 87 77.706)" style="fill:#fffae6"/>
        <g data-name="Union 17" style="fill:none">
            <path d="m87.158 155.528-35.511-26.081-23.967 1.2c-14.064 0-25.406-8.991-25.465-25.465L0 37.643a25.465 25.465 0 0 1 25.465-25.464L253.542 0c14.063 0 20.518 7.524 25.465 25.465l17.068 65.368c4.16 16.717-9.614 26.576-24.818 27.634l-185.19 9.259 4.711 24.3c.608 2.787-.3 4.2-1.713 4.2a3.444 3.444 0 0 1-1.907-.698z" style="stroke:none" transform="translate(94.087 66.162)"/>
            <path d="M89.064 155.728c.402 0 .727-.149.963-.442.481-.598.574-1.717.261-3.15l-.002-.012-4.82-24.868.575-.029 185.184-9.26c4.447-.31 8.75-1.389 12.444-3.121 1.895-.89 3.628-1.948 5.15-3.145 1.571-1.238 2.924-2.63 4.02-4.137a17.958 17.958 0 0 0 3.176-7.386c.525-2.873.382-5.975-.426-9.222l-17.066-65.362c-1.275-4.625-2.602-8.375-4.057-11.464-1.527-3.243-3.206-5.787-5.132-7.778-1.956-2.02-4.164-3.469-6.75-4.427C260 .967 257.047.5 253.555.5L25.465 12.679A24.883 24.883 0 0 0 7.813 19.99 24.882 24.882 0 0 0 .5 37.635l2.215 67.544c.027 7.675 2.559 14.088 7.322 18.547 2.225 2.083 4.886 3.694 7.909 4.787 2.99 1.082 6.261 1.631 9.72 1.633l24.133-1.207.144.105 35.505 26.077c.575.397 1.133.607 1.616.607m0 .5c-.574 0-1.232-.232-1.906-.7l-35.511-26.08-23.967 1.198c-14.065 0-25.407-8.991-25.465-25.466L0 37.643C0 23.58 11.401 12.18 25.466 12.18L253.542 0c14.063 0 20.518 7.524 25.464 25.465l17.068 65.368c4.16 16.717-9.614 26.576-24.819 27.634l-185.19 9.26 4.712 24.302c.608 2.787-.299 4.199-1.713 4.2z" style="fill:#e762a0;stroke:none" transform="translate(94.087 66.162)"/>
        </g>
        <path data-name="Path 234" d="m402.707 1083.449 1.3-15.479 5.842 1.186z" transform="translate(-38.82 -1022.712)" style="fill:#fffae6"/>
        <path data-name="Path 237" d="M0 14.906 1.247 0l5.626 1.142z" transform="scale(-1) rotate(-2 -6714.984 2834.663)" style="fill:#ef7ca4"/>
        <path data-name="Path 235" d="M0 22.955 2.374 0l5.842 1.186z" transform="rotate(38 124.374 576.459)" style="fill:#fffae6"/>
        <path data-name="Path 236" d="M0 22.1 2.286 0l5.626 1.142z" transform="rotate(-144 81.143 102.74)" style="fill:#ef7ca4"/>
    </g>
</svg>
