<svg xmlns="http://www.w3.org/2000/svg" width="560.58" height="370.23" viewBox="0 0 560.58 370.23">
    <defs>
        <clipPath id="bakpn36caa">
            <path data-name="Rectangle 5" style="fill:none" d="M0 0h560.58v370.23H0z"/>
        </clipPath>
        <filter id="hv26ec63bb" x="74.29" y="69" width="414" height="266" filterUnits="userSpaceOnUse">
            <feOffset dx="2" dy="3"/>
            <feGaussianBlur stdDeviation="20" result="blur"/>
            <feFlood flood-color="#ff3b00" flood-opacity=".302"/>
            <feComposite operator="in" in2="blur"/>
            <feComposite in="SourceGraphic"/>
        </filter>
    </defs>
    <g data-name="Group 3" style="clip-path:url(#bakpn36caa)">
        <path data-name="Union 2" d="M87.93 109.722a59.76 59.76 0 0 1-28.594 7.225C26.565 116.947 0 90.767 0 58.474S26.565 0 59.335 0a59.55 59.55 0 0 1 46.6 22.277A60.16 60.16 0 0 1 166.087 24a58.443 58.443 0 0 1 43.7-19.462C241.936 4.534 268 30.217 268 61.9s-26.064 57.364-58.215 57.364a58.6 58.6 0 0 1-29.84-8.1 59.895 59.895 0 0 1-92.016-1.442z" transform="translate(226.29 167)" style="fill:#ff8b94;opacity:.598"/>
        <path data-name="Union 3" d="M63.322 78.967a43.057 43.057 0 0 1-20.592 5.2C19.131 84.167 0 65.325 0 42.083S19.131 0 42.73 0a42.9 42.9 0 0 1 33.563 16.033 43.349 43.349 0 0 1 43.315 1.237 42.1 42.1 0 0 1 31.468-14.007C174.23 3.263 193 21.747 193 44.548s-18.77 41.285-41.924 41.285A42.218 42.218 0 0 1 129.587 80a43.151 43.151 0 0 1-66.265-1.038z" transform="translate(81.29 90)" style="fill:#ffeb4e"/>
        <g style="filter:url(#hv26ec63bb)">
            <path data-name="Union 1" d="M96.46 121.359a65.134 65.134 0 0 1-31.368 7.991C29.143 129.351 0 100.394 0 64.675S29.143 0 65.092 0a65.128 65.128 0 0 1 51.126 24.64 65.531 65.531 0 0 1 65.982 1.9 63.884 63.884 0 0 1 47.937-21.525C265.408 5.015 294 33.422 294 68.464s-28.592 63.449-63.863 63.449a63.883 63.883 0 0 1-32.734-8.958 65.363 65.363 0 0 1-100.943-1.596z" transform="translate(132.29 126)" style="fill:#fef6e9"/>
        </g>
        <g data-name="Path 24" style="stroke-linecap:round;stroke-linejoin:round;fill:#ef7ca4">
            <path d="M27.131 33.273a6.03 6.03 0 0 1-1.45-.193 8.455 8.455 0 0 1-3.795-2.058c-.8-.748-1.497-1.672-2.079-2.756a28.28 28.28 0 0 1-7.302 3.638l-.667.218-.262-.651-.38-.945a4.508 4.508 0 0 1-1.067 1.416c-.904.802-2.157 1.226-3.624 1.226-1.883 0-4.132-.687-6.504-1.988l-.546-.3.194-.59.575-1.761.196-.601.625.092c1.815.266 2.91.38 3.662.38.608 0 1.003-.08 1.143-.23.155-.167.214-.628.251-1.058l.358-4.077a59.774 59.774 0 0 1-5.189 1.732l-.742.207-.187-.749-1.069-4.295-.188-.757.764-.158A116.438 116.438 0 0 0 6.96 17.3l.417-4.756H.442l.071-.815.2-2.289.06-.685H7.707l.167-1.914c-1.581.236-3.327.42-5.302.561l-.756.054-.046-.756-.116-1.902-.04-.644.632-.135c5.23-1.117 9.67-2.69 13.195-4.673l.574-.323.394.528L18 1.676c.044-.495.093-1.018.146-1.571l.065-.679H23.978l-.08.822-.051.545L25.096-.2l.434-.344.456.312c2.179 1.492 4.518 3.852 5.959 6.012l.418.626-.628.415-2.92 1.934H32.8l-.071.816-.2 2.288-.06.685H26.59l.01.004 3.867 1.654.738.316-.365.715c-1.798 3.525-3.978 6.607-6.485 9.168.585 1.385 1.348 2.317 2.271 2.773.063.03.111.052.148.066.07-.131.194-.449.334-1.195.16-.854.311-2.1.493-4.042l.063-.68h3.234l.093.642c.738 5.109.392 8.406-1.058 10.08-.705.815-1.648 1.228-2.802 1.228zm-14.67-12.938-.704 8.034-.006.063c2.47-1.367 4.574-2.887 6.402-4.626-.446-1.848-.73-3.972-.851-6.354a42.322 42.322 0 0 1-4.842 2.883zm10.577-7.791a61.18 61.18 0 0 0 .053 5.135 42.428 42.428 0 0 0 2.532-4.754l.174-.381h-2.76zm-9.896 0-.256 2.93a92.63 92.63 0 0 0 3.498-1.282l.703-.271.15.392a66.11 66.11 0 0 1 .035-1.77h-4.13zm10.071-3.789h3.545c-.892-2.083-2.109-4.446-3.072-6.184-.17 1.964-.288 3.602-.402 5.201l-.071.983zm-9.74 0h3.976c.03-.399.058-.794.086-1.193.07-.981.141-1.978.23-3.096-1.132.43-2.48.843-4.024 1.237l-.267 3.052z" style="stroke:none" transform="rotate(-5.13 1404.47 -1743.737)"/>
            <path d="M27.131 32.523c3.402 0 4.004-4.317 3.118-10.45h-1.902c-.54 5.773-.905 6.337-2.053 5.773-1.283-.633-2.19-1.936-2.817-3.626 2.737-2.71 4.954-5.914 6.695-9.328l-3.868-1.655c-1.13 2.465-2.38 4.681-3.785 6.654-.274-2.5-.313-5.28-.207-8.097h9.47l.2-2.289h-9.576c.202-2.71.366-5.386.746-9.329h-4.26c-.4 4.19-.54 6.583-.746 9.33h-5.49l.384-4.401c2.014-.493 3.86-1.056 5.323-1.69L15.81 0C12.18 2.042 7.678 3.626 2.403 4.753l.117 1.9c1.984-.14 4.113-.351 6.186-.703l-.31 3.555H1.46l-.2 2.289h6.936l-.534 6.09A117.786 117.786 0 0 1 0 19.75l1.07 4.295c2.02-.563 4.125-1.302 6.241-2.146l-.462 5.28c-.179 2.041-.63 2.358-5.913 1.584l-.575 1.76c5.778 3.168 10.252 2.324 10.649-2.218l.74-8.45c2.026-1.02 3.919-2.146 5.535-3.309l-.63-1.653a86.287 86.287 0 0 1-4.616 1.653l.416-4.751h5.597c-.18 4.084-.04 8.518.934 12.25-2.117 2.077-4.595 3.838-7.437 5.351l.722 1.796a27.425 27.425 0 0 0 7.817-4.049c1.18 2.605 3.054 4.542 5.775 5.21.46.116.882.171 1.268.171m.416-23.827 3.774-2.5c-1.339-2.007-3.599-4.33-5.758-5.809l-1.55 1.232c1.158 2.042 2.572 4.788 3.534 7.077m-.416 25.327c-.51 0-1.058-.072-1.63-.215-2.458-.605-4.486-2.138-5.94-4.472a28.983 28.983 0 0 1-6.822 3.28 1.5 1.5 0 0 1-1.682-.544 5.055 5.055 0 0 1-.43.43c-1.043.927-2.468 1.416-4.122 1.416-2.009 0-4.383-.72-6.865-2.08a1.5 1.5 0 0 1-.704-1.782l.575-1.76a1.5 1.5 0 0 1 1.643-1.018c1.777.26 2.84.371 3.553.371.292 0 .471-.02.574-.038.021-.1.048-.272.073-.564l.254-2.895a57.453 57.453 0 0 1-4.136 1.337 1.5 1.5 0 0 1-1.859-1.083l-1.069-4.295a1.5 1.5 0 0 1 1.151-1.83c2.162-.449 4.365-.975 6.564-1.567l.3-3.42H1.26a1.5 1.5 0 0 1-1.494-1.63l.2-2.289a1.5 1.5 0 0 1 1.494-1.37h.41a1.5 1.5 0 0 1-.848-1.26l-.116-1.9a1.5 1.5 0 0 1 1.184-1.56c5.157-1.1 9.525-2.646 12.984-4.592a1.5 1.5 0 0 1 1.937.409l.455.609a1.5 1.5 0 0 1 1.426-1.035h4.26a1.5 1.5 0 0 1 1.27.702l.207-.165A1.5 1.5 0 0 1 26.41-.85C28.661.69 31.08 3.13 32.57 5.364a1.5 1.5 0 0 1-.42 2.083l-.843.558h.676a1.5 1.5 0 0 1 1.494 1.63l-.2 2.29a1.5 1.5 0 0 1-1.494 1.369H30.25l.512.219a1.5 1.5 0 0 1 .746 2.06 40.93 40.93 0 0 1-3.005 5h1.746a1.5 1.5 0 0 1 1.484 1.285c.348 2.408.459 4.469.329 6.125-.16 2.034-.67 3.524-1.562 4.554-.842.972-2.007 1.486-3.369 1.486zm-13.96-13.212-.546 6.248a29.36 29.36 0 0 0 4.7-3.505c-.321-1.435-.55-3.022-.687-4.754a44.575 44.575 0 0 1-3.467 2.01zm12.078 3.744c.32.65.683 1.159 1.088 1.521.028-.136.057-.294.088-.477.11-.66.22-1.548.34-2.755a34.324 34.324 0 0 1-1.516 1.71zM23.77 13.294c-.01.587-.014 1.158-.01 1.715.293-.552.58-1.123.862-1.715h-.852zm-9.94 0-.096 1.088c.744-.267 1.529-.56 2.38-.89a1.5 1.5 0 0 1 .385-.092l.002-.106H13.83zm10.189-5.289h1.586a69.696 69.696 0 0 0-1.379-2.829c-.07.924-.133 1.793-.194 2.65l-.013.18zm-9.727 0h2.46l.035-.496c.045-.634.09-1.275.141-1.95-.757.252-1.587.498-2.486.737l-.15 1.71zm-9.878 0h2.607l.025-.29c-.83.11-1.705.206-2.632.29z" style="fill:#fef6e9;stroke:none" transform="rotate(-5.13 1404.47 -1743.737)"/>
        </g>
        <g data-name="Path 25" style="stroke-linecap:round;stroke-linejoin:round;fill:#ef7ca4">
            <path d="M23.67 33.73c-2.148 0-4.714-.929-7.421-2.684l-.515-.334.225-.57.68-1.726.23-.587.619.128c2.276.468 3.637.668 4.549.668 1.312 0 1.574-.27 1.87-1.93.24-1.403.468-2.918.69-4.59l-3.74 1.97-.855.45-.223-.94c-.562-2.363-1.459-5.229-2.41-7.733a26.482 26.482 0 0 1-1.538 1.774l-.48.504-.539-.441-.018-.015-1.247 14.251-.06.685H7.756l.072-.816.19-2.177H5.264l-.257 2.942-.06.685H-.818l.07-.816 2.24-25.593.06-.685h4.11c.505-2.118.98-4.47 1.263-6.267l.119-.756.753.135 4.923.88.99.177-.451.897a39.509 39.509 0 0 1-2.98 4.934H15.8l-.072.816-.348 3.986c.975-2.564 2.139-6.238 3.09-11.028l.141-.716.72.123 4.752.81.81.138-.21.793c-.39 1.466-1.02 3.27-1.77 5.078h9.225l-.074.818c-.845 9.277-1.56 16.093-2.509 21.398-.305 1.711-.98 3.049-2.004 3.975-1.02.921-2.326 1.388-3.882 1.388zM5.586 25.934h2.755l.598-6.844H6.185l-.599 6.844zm14.05-13.327.165.16c1.902 1.84 3.876 4.525 5.106 6.89.335-2.807.663-6.029 1-9.825h-4.705a40.272 40.272 0 0 1-1.565 2.775zM6.505 15.443h2.754l.491-5.61H6.995l-.49 5.61z" style="stroke:none" transform="rotate(-5.13 1382.931 -2137.509)"/>
            <path d="M7.665 0c-.315 2.007-.867 4.682-1.413 6.9H2.24L0 32.494h4.26l.317-3.627h4.26l-.262 2.993H12.8l1.37-15.667 1.117.916c2.21-2.324 4.047-5.21 5.455-8.026h5.985c-.718 8.202-1.36 13.518-2.08 17.742-.484 2.711-1.156 3.134-7.31 1.866l-.68 1.725c6.296 4.084 11.194 3.238 12.161-2.182.894-5 1.602-11.477 2.5-21.334h-9.541c1.01-2.29 1.761-4.436 2.181-6.02L19.206.07c-.88 4.436-2.607 10.878-4.965 15.314l.741-8.484H8.787A38.36 38.36 0 0 0 12.588.88L7.665 0m2.28 16.193h-4.26l.623-7.11h4.26l-.622 7.11m-.918 10.492h-4.26l.73-8.344h4.26l-.73 8.344M19.28 13.307l-1.65 1.161c1.014 2.5 2.158 5.915 2.878 8.942l4.281-2.253c-1.109-2.605-3.4-5.809-5.51-7.85M7.666-1.5a1.5 1.5 0 0 1 .264.023l4.923.88a1.5 1.5 0 0 1 1.077 2.15A39.423 39.423 0 0 1 11.696 5.4h3.286a1.5 1.5 0 0 1 1.237.651 75.637 75.637 0 0 0 1.515-6.273 1.5 1.5 0 0 1 1.724-1.186l4.752.81a1.5 1.5 0 0 1 1.198 1.863c-.327 1.234-.803 2.656-1.382 4.135h7.292a1.5 1.5 0 0 1 1.493 1.636c-.846 9.297-1.563 16.13-2.516 21.462-.336 1.879-1.09 3.36-2.24 4.4-1.146 1.034-2.662 1.581-4.385 1.581-2.293 0-5-.97-7.83-2.804a1.5 1.5 0 0 1-.579-1.808l.68-1.725a1.5 1.5 0 0 1 1.698-.92c2.224.458 3.54.653 4.398.653.554 0 .757-.087.785-.118.076-.085.198-.361.347-1.19.166-.979.328-2.013.486-3.118l-2.448 1.289a1.5 1.5 0 0 1-2.158-.98c-.466-1.96-1.166-4.271-1.936-6.428-.244.28-.49.552-.739.812-.25.263-.573.416-.908.456l-1.172 13.393A1.5 1.5 0 0 1 12.8 33.36H8.575a1.5 1.5 0 0 1-1.494-1.63l.119-1.363H5.95l-.197 2.257a1.5 1.5 0 0 1-1.494 1.37H0a1.5 1.5 0 0 1-1.494-1.631L.745 6.77A1.5 1.5 0 0 1 2.239 5.4h2.829c.446-1.933.865-4.042 1.116-5.633A1.5 1.5 0 0 1 7.665-1.5zm1.266 12.083H7.682l-.36 4.11h1.249l.36-4.11zm16.156 0h-3.43c-.344.653-.702 1.29-1.07 1.906 1.369 1.372 2.727 3.097 3.832 4.83.223-2.025.443-4.254.668-6.736zM8.121 19.841H6.872l-.467 5.344h1.248l.468-5.344z" style="fill:#fef6e9;stroke:none" transform="rotate(-5.13 1382.931 -2137.509)"/>
        </g>
        <path data-name="Path 9" d="M195.534 99.607a4.767 4.767 0 1 1-4.768-4.768 4.768 4.768 0 0 1 4.768 4.768z" transform="translate(213.945 137.931)" style="stroke:#ef7ca4;stroke-linecap:round;stroke-linejoin:round;fill:none"/>
        <path data-name="Path 12" d="M32.6 97.379c5.2 8.17 15.846 12.256 24.387 12.256 9.78 0 14.732-5.2 14.732-11.513 0-4.827-3.713-8.912-15.1-8.912-3.466 0-8.665 0-9.9.124l3.466-15.35c1.363.124 8.42.124 11.515.124 9.407 0 16.092-2.848 16.092-9.78 0-5.446-5.942-9.407-16.215-9.407a32.592 32.592 0 0 0-20.068 6.929L35.2 49.842c6.8-6.065 17.327-10.15 28.1-10.15 19.684 0 32.681 7.924 32.681 21.54 0 11.142-11.513 19.064-22.282 20.426 8.542 2.1 15.35 7.552 15.35 18.074 0 14.608-14.113 25.254-31.815 25.254-15.1 0-29.957-6.191-36.147-17.207z" transform="rotate(-2 3425.383 -3921.214)" style="fill:#ef7ca4"/>
        <path data-name="Path 13" d="M117.5 49.693c12.131 0 21.416 4.332 27.729 11.264l-10.641 12.132c-3.961-5.2-10.771-8.047-18.075-8.047-12.131 0-20.053 10.523-23.149 20.551a10.242 10.242 0 0 0-1.114 3.466c4.334-4.7 12.627-8.79 21.416-8.79 14.733 0 26.121 8.542 26.121 22.655 0 17.577-15.35 32.061-34.167 32.061-20.3 0-32.432-11.759-32.432-31.937 0-26.74 15.844-53.354 44.317-53.354m-11.885 44.44a21.92 21.92 0 0 0-14.979 6.189 25.476 25.476 0 0 0-.248 4.458c0 9.036 6.314 14.855 15.35 14.855 8.789 0 15.6-6.314 15.6-14.36 0-6.809-6.809-11.142-15.722-11.142" transform="rotate(-2 3543.914 -4602.51)" style="fill:#ef7ca4"/>
        <path data-name="Path 14" d="M136.546 98.859c4.458 7.179 12.38 11.389 22.284 11.389 9.656 0 15.722-6.314 15.722-13.617 0-7.056-6.314-11.389-15.6-11.389a23.079 23.079 0 0 0-15.1 5.2l-11.389-4.58 9.78-44.317h56.7l-3.342 15.1h-39.494l-4.334 19.807c4.334-3.344 9.656-5.2 16.714-5.2 13.492 0 24.51 8.295 24.51 23.274 0 16.958-13.865 31.071-34.291 31.071-16.093 0-27.606-5.818-34.414-15.846z" transform="rotate(-2 3426.116 -5266.658)" style="fill:#ef7ca4"/>
        <path data-name="Path 15" d="M140.195 42.074a65.22 65.22 0 0 0-54.134 3.159 65.238 65.238 0 0 0-21.832-16.811" transform="translate(158.386 107.627)" style="stroke:#ef7ca4;stroke-linecap:round;stroke-linejoin:round;fill:none"/>
        <path data-name="Path 16" d="M218.832 126.652a64.9 64.9 0 0 0-88.487-91.041" transform="translate(188.552 106.362)" style="stroke:#ef7ca4;stroke-linecap:round;stroke-linejoin:round;fill:none"/>
        <path data-name="Path 17" d="M69.129 112.866a65.054 65.054 0 0 0 93.036-2.693 65.17 65.17 0 0 0 66-2.675" transform="translate(160.622 143.707)" style="stroke:#ef7ca4;stroke-linecap:round;stroke-linejoin:round;fill:none"/>
        <path data-name="Path 18" d="M27.065 32.734a64.751 64.751 0 0 0 38.4 117.044" transform="translate(129.309 109.595)" style="stroke:#ef7ca4;stroke-linecap:round;stroke-linejoin:round;fill:none"/>
        <path data-name="Path 19" d="M182.05 106.284a.907.907 0 1 1-.907-.907.907.907 0 0 1 .907.907" transform="translate(211.315 142.739)" style="fill:#e6619f"/>
        <path data-name="Path 20" d="M184.214 104.647a.907.907 0 1 1-.907-.907.907.907 0 0 1 .907.907" transform="translate(212.303 141.992)" style="fill:#e6619f"/>
        <path data-name="Path 21" d="M129.083 34.392a.907.907 0 1 1-.907-.907.908.908 0 0 1 .907.907" transform="translate(187.148 109.937)" style="fill:#e6619f"/>
        <path data-name="Path 22" d="M50.349 113.391a.907.907 0 1 1-.907-.907.907.907 0 0 1 .907.907" transform="translate(151.226 145.981)" style="fill:#e6619f"/>
        <path data-name="Path 23" d="M73.951 110.18a4.814 4.814 0 1 1-4.813-4.813 4.813 4.813 0 0 1 4.813 4.813" transform="translate(152.249 141.025)" style="fill:#ffe200"/>
        <circle data-name="Ellipse 28" cx="4.807" cy="4.807" r="4.807" transform="translate(298.527 146.51)" style="stroke:#56a1d9;stroke-miterlimit:10;fill:none"/>
    </g>
</svg>
