<svg xmlns="http://www.w3.org/2000/svg" width="587.437" height="376.657" viewBox="0 0 587.437 376.657">
    <defs>
        <clipPath id="trcdzdzlva">
            <path data-name="Rectangle 13" transform="translate(-104 -104)" style="fill:none" d="M0 0h575.336v356.796H0z"/>
        </clipPath>
    </defs>
    <g transform="rotate(-2 3492.35 -3012.156)" style="clip-path:url(#trcdzdzlva)">
        <path data-name="Union 5" d="M87.93 109.722a59.76 59.76 0 0 1-28.594 7.225C26.565 116.947 0 90.767 0 58.474S26.565 0 59.335 0a59.55 59.55 0 0 1 46.6 22.277A60.16 60.16 0 0 1 166.087 24a58.443 58.443 0 0 1 43.7-19.462C241.936 4.534 268 30.217 268 61.9s-26.064 57.364-58.215 57.364a58.6 58.6 0 0 1-29.84-8.1 59.895 59.895 0 0 1-92.016-1.442z" transform="rotate(-7 502.712 -1024.325)" style="fill:#ff8992;opacity:.595"/>
        <path data-name="Union 6" d="M75.784 94.508a51.531 51.531 0 0 1-24.645 6.223C22.9 100.731 0 78.181 0 50.365S22.9 0 51.14 0a51.337 51.337 0 0 1 40.167 19.188 51.88 51.88 0 0 1 51.839 1.481 50.385 50.385 0 0 1 37.663-16.763c27.71 0 50.174 22.121 50.174 49.41s-22.464 49.41-50.174 49.41a50.527 50.527 0 0 1-25.718-6.976 51.643 51.643 0 0 1-79.306-1.242z" transform="rotate(2 255.823 -876.423)" style="fill:#ffeb4e;opacity:.797"/>
        <path data-name="Path 50" d="M304.918 15.435A60.236 60.236 0 0 0 257.477 38.5a60.336 60.336 0 0 0-58.88-5.934 60.347 60.347 0 0 0-102.162-5.389 60.362 60.362 0 1 0 18.813 86.723A60.349 60.349 0 0 0 170 117.17a60.343 60.343 0 0 0 100.215 8 60.356 60.356 0 1 0 34.7-109.735" transform="translate(2.058 .561)" style="fill:#fef6e9"/>
        <path data-name="Path 51" d="M193.011 26.513a60.152 60.152 0 0 0-24.178 5.052 60.348 60.348 0 0 0-102.161-5.388" transform="translate(24.95 .187)" style="stroke:#e762a0;stroke-linecap:round;stroke-linejoin:round;fill:none"/>
        <path data-name="Path 52" d="M284.354 34.1a60.345 60.345 0 0 0-95.209-.39 60.173 60.173 0 0 0-19.414-9.027" transform="translate(63.518 3.982)" style="stroke:#e762a0;stroke-linecap:round;stroke-linejoin:round;fill:none"/>
        <path data-name="Path 53" d="M120.2 99.732a60.341 60.341 0 0 0 100.215 8 60.381 60.381 0 0 0 93.445-63.309" transform="translate(44.983 16.624)" style="stroke:#e762a0;stroke-linecap:round;stroke-linejoin:round;fill:none"/>
        <path data-name="Path 54" d="M60.86 13.13a60.361 60.361 0 1 0 49.387 95.044 60.046 60.046 0 0 0 24.157 7.983" transform="translate(.187 4.914)" style="stroke:#e762a0;stroke-linecap:round;stroke-linejoin:round;fill:none"/>
        <path data-name="Path 55" d="m77.955 39.5-2.5.247-5.5 62.827H58.917l5.46-62.415c-1.079.082-2.068.082-3.06.082l-1.766 20.2c-2.108 24.076-6.262 35.783-17.913 43.617l-2.989-3.546C43.391 93.427 45.6 85.183 47.6 63.25a69.144 69.144 0 0 1-7.83 5.607L37.525 94.5c-.9 10.305-10.631 12.2-21.586 6.43l1.5-4.865c6.867.66 7.391.33 7.715-3.381L26.61 76.03c-2.148.989-4.207 1.9-6.258 2.721L17.72 67.373q4.8-1.113 9.863-2.474l1.19-13.6H21.6l.519-5.937h7.172l1.494-17.068h12.53l-1.491 17.065h6.266l-.518 5.941H41.3l-.834 9.565a91.112 91.112 0 0 0 5.03-1.9l2.1 4.288.245-2.8 2.452-28.033 9.426 2.556a90.954 90.954 0 0 0 26.439-7.256l8.071 9.565a66.885 66.885 0 0 1-9.791 1.649c-1.63 23.334.981 44.359 7.439 58.209l-12.225 6.844c-4.25-11.708-3.617-40.648-1.7-64.476" transform="translate(5.965 10.371)" style="fill:#ef7ca4"/>
        <path data-name="Path 56" d="M74.482 90.274c5.693-9.481 7.362-19.128 9.324-41.554l2.518-28.776h65.465L146.343 82.2c-1.088 12.449-14.171 14.016-28.445 6.595l1.355-5.112c12.648 1.484 14.069.33 14.487-4.451l4.638-53.016h-39.74l-1.954 22.339c-1.465 16.737-4.661 33.475-18.548 45.182zm24.424-42.626h11.377l.541-6.184H100.6l.518-5.937h10.224l.635-7.256h12.533l-.635 7.256h10.305l-.519 5.937h-10.303l-.541 6.184h11.626l-.519 5.935H98.387zm.08 10.388h33.392l-1.839 21.026H97.147zm20.043 15.007.793-9.07H110.5l-.793 9.07z" transform="translate(27.873 7.464)" style="fill:#ef7ca4"/>
        <path data-name="Path 57" d="m205.719 103.092-7.576 9.317a163.055 163.055 0 0 0-13.918-12.449l3.043-4.617h-11.13l6.184 4.7a63.55 63.55 0 0 1-26.039 13.026l-1.718-4.865a62.349 62.349 0 0 0 17.286-12.861h-6.761l2.056-23.5a79.022 79.022 0 0 1-9.046 11.05l-3.776-2.061-1.8 20.531c-1 11.46-11.479 14.346-22.829 7.419l1.519-5.112c7.439.742 8.919-.165 9.316-4.7l2.655-30.342H132.88l.519-5.935h16.326a109.081 109.081 0 0 0-8.671-10.224l3.172-4.205a44.915 44.915 0 0 1 7.462 3.3 74.582 74.582 0 0 0 3.162-6.926h-17.727l.519-5.935h17.314l3.687-2.557L169.015 42l.267-3.051h38.834l-.519 5.937H194.4a71.25 71.25 0 0 1-6.113 7.668h16.491l-3.743 42.792h-11.458a79.856 79.856 0 0 1 16.142 7.749m-47.775-34.467h-2.554l-.939 10.719a110.841 110.841 0 0 0 3.493-10.719m9.857-4.286 1.032-11.791h12.615c.381-2.474.775-5.112 1-7.668h-13.686l.115-1.319a85.171 85.171 0 0 1-11.556 11.461c1.314.989 2.711 1.979 3.944 2.968l-4.862 4.7h1.648l2.983-2.061zm24.753-5.854h-12.7l-.519 5.937h12.7zM191.529 70.2h-12.7l-.584 6.677h12.7zm-14.377 19.21h12.7l.592-6.761h-12.7z" transform="translate(48.536 13.526)" style="fill:#ef7ca4"/>
        <path data-name="Path 58" d="M208.873 68.227c-1.939 11.791-5.662 27.95-8 34.959l-13.143-5.277a265.626 265.626 0 0 0 16.663-31.249zm2.659-13.44-9.576 9.565A169.286 169.286 0 0 0 192.494 50l3.239-4.04a59.807 59.807 0 0 1 15.8 8.823m29.7 41.225-9.617 6.266a135.492 135.492 0 0 0-5.879-15.747l3.537-2.721H217.4l5.917 3.049c-4.626 6.679-11.608 13.935-17.51 17.315l-3.169-3.381a83.35 83.35 0 0 0 10.969-16.984h-3.958l4.1-46.832-9.29 8.163c-2.654-4.535-6.286-10.142-8.832-14.017l3.456-3.71A51.033 51.033 0 0 1 213.8 36.4l.412-4.7h27.538l-4.56 52.109h-6.265a59.82 59.82 0 0 1 10.309 12.2m-11.381-58.371h-4.782l-.815 9.317h4.781zm-1.321 15.088h-4.782l-.844 9.647h4.782zm-1.349 15.419H222.4l-.852 9.73h4.782zm21.362 15.007h-9.235l4.112-47h9.235zm17.534-54.335-5.821 66.537c-.873 9.977-10.914 10.719-19.4 4.947l1.619-4.37c5.79.742 6.665.165 6.91-2.639l5.641-64.476z" transform="translate(70.251 10.259)" style="fill:#ef7ca4"/>
        <path data-name="Path 59" d="M167.6 20.613a4.5 4.5 0 1 1-4.5-4.5 4.5 4.5 0 0 1 4.5 4.5z" transform="translate(59.355 6.03)" style="stroke:#e762a0;stroke-linecap:round;stroke-linejoin:round;fill:none"/>
        <path data-name="Path 60" d="M69.286 21a2.518 2.518 0 1 1-2.518-2.518A2.517 2.517 0 0 1 69.286 21" transform="translate(24.044 6.917)" style="fill:#e762a0"/>
        <path data-name="Path 61" d="M255.433 30.214a.856.856 0 1 1-.856-.856.856.856 0 0 1 .856.856" transform="translate(94.949 10.986)" style="fill:#e6619f"/>
        <path data-name="Path 62" d="M107.134 89.676a3.289 3.289 0 1 1-3.29-3.29 3.29 3.29 0 0 1 3.29 3.29" transform="translate(37.631 32.328)" style="fill:#ffbc00"/>
        <circle data-name="Ellipse 51" cx="3.536" cy="3.536" r="3.536" transform="translate(354.367 54.686)" style="fill:#56a1d9"/>
        <path data-name="Path 63" d="M48.909 13.363a.856.856 0 1 1-.856-.856.856.856 0 0 1 .856.856" transform="translate(17.662 4.68)" style="fill:#e6619f"/>
        <path data-name="Path 64" d="M52.077 13.679a.856.856 0 1 1-.856-.856.856.856 0 0 1 .856.856" transform="translate(18.848 4.799)" style="fill:#e6619f"/>
    </g>
</svg>
