<svg xmlns="http://www.w3.org/2000/svg" width="620.417" height="377.809" viewBox="0 0 620.417 377.809">
    <defs>
        <clipPath id="m9ywqco31a">
            <path data-name="Rectangle 45" transform="translate(-104 -104)" style="fill:none" d="M0 0h608.336v356.796H0z"/>
        </clipPath>
        <clipPath id="sxuqt2v34b">
            <path data-name="Rectangle 47" style="fill:#ef7ca4" d="M0 0h301.9v102.4H0z"/>
        </clipPath>
    </defs>
    <g transform="rotate(-2 3525.254 -3011.58)" style="clip-path:url(#m9ywqco31a)">
        <path data-name="Union 7" d="M87.93 109.722a59.76 59.76 0 0 1-28.594 7.225C26.565 116.947 0 90.767 0 58.474S26.565 0 59.335 0a59.55 59.55 0 0 1 46.6 22.277A60.16 60.16 0 0 1 166.087 24a58.443 58.443 0 0 1 43.7-19.462C241.936 4.534 268 30.217 268 61.9s-26.064 57.364-58.215 57.364a58.6 58.6 0 0 1-29.84-8.1 59.895 59.895 0 0 1-92.016-1.442z" transform="rotate(-7 541.383 -1283.905)" style="fill:#ff8992;opacity:.746"/>
        <path data-name="Union 8" d="M75.784 94.508a51.531 51.531 0 0 1-24.645 6.223C22.9 100.731 0 78.181 0 50.365S22.9 0 51.14 0a51.337 51.337 0 0 1 40.167 19.188 51.88 51.88 0 0 1 51.839 1.481 50.385 50.385 0 0 1 37.663-16.763c27.71 0 50.174 22.121 50.174 49.41s-22.464 49.41-50.174 49.41a50.527 50.527 0 0 1-25.718-6.976 51.643 51.643 0 0 1-79.306-1.242z" transform="rotate(2 255.823 -876.423)" style="fill:#ffeb4e;opacity:.797"/>
        <path data-name="Path 166" d="M304.918 15.435A60.236 60.236 0 0 0 257.477 38.5a60.336 60.336 0 0 0-58.88-5.934 60.347 60.347 0 0 0-102.162-5.389 60.362 60.362 0 1 0 18.813 86.723A60.349 60.349 0 0 0 170 117.17a60.343 60.343 0 0 0 100.215 8 60.356 60.356 0 1 0 34.7-109.735" transform="translate(2.058 .561)" style="fill:#fef6e9"/>
        <path data-name="Path 167" d="M193.011 26.513a60.152 60.152 0 0 0-24.178 5.052 60.348 60.348 0 0 0-102.161-5.388" transform="translate(24.95 .187)" style="stroke:#e762a0;stroke-linecap:round;stroke-linejoin:round;fill:none"/>
        <path data-name="Path 168" d="M284.354 34.1a60.345 60.345 0 0 0-95.209-.39 60.173 60.173 0 0 0-19.414-9.027" transform="translate(63.518 3.982)" style="stroke:#e762a0;stroke-linecap:round;stroke-linejoin:round;fill:none"/>
        <path data-name="Path 169" d="M120.2 99.732a60.341 60.341 0 0 0 100.215 8 60.381 60.381 0 0 0 93.445-63.309" transform="translate(44.983 16.624)" style="stroke:#e762a0;stroke-linecap:round;stroke-linejoin:round;fill:none"/>
        <path data-name="Path 170" d="M60.86 13.13a60.361 60.361 0 1 0 49.387 95.044 60.046 60.046 0 0 0 24.157 7.983" transform="translate(.187 4.914)" style="stroke:#e762a0;stroke-linecap:round;stroke-linejoin:round;fill:none"/>
        <path data-name="Path 175" d="M167.6 20.613a4.5 4.5 0 1 1-4.5-4.5 4.5 4.5 0 0 1 4.5 4.5z" transform="translate(59.355 6.03)" style="stroke:#e762a0;stroke-linecap:round;stroke-linejoin:round;fill:none"/>
        <path data-name="Path 176" d="M69.286 21a2.518 2.518 0 1 1-2.518-2.518A2.517 2.517 0 0 1 69.286 21" transform="translate(24.044 6.917)" style="fill:#e762a0"/>
        <path data-name="Path 177" d="M255.433 30.214a.856.856 0 1 1-.856-.856.856.856 0 0 1 .856.856" transform="translate(94.949 10.986)" style="fill:#e6619f"/>
        <path data-name="Path 178" d="M107.134 89.676a3.289 3.289 0 1 1-3.29-3.29 3.29 3.29 0 0 1 3.29 3.29" transform="translate(37.631 32.328)" style="fill:#ffbc00"/>
        <circle data-name="Ellipse 72" cx="3.536" cy="3.536" r="3.536" transform="translate(354.367 54.686)" style="fill:#56a1d9"/>
        <path data-name="Path 179" d="M48.909 13.363a.856.856 0 1 1-.856-.856.856.856 0 0 1 .856.856" transform="translate(17.662 4.68)" style="fill:#e6619f"/>
        <path data-name="Path 180" d="M52.077 13.679a.856.856 0 1 1-.856-.856.856.856 0 0 1 .856.856" transform="translate(18.848 4.799)" style="fill:#e6619f"/>
        <g data-name="Group 113">
            <g data-name="Group 112" transform="matrix(1 0 0 1 32.753 22.192)" style="clip-path:url(#sxuqt2v34b)">
                <path data-name="Path 181" d="m22.066 30.8-3.792 43.344a111.216 111.216 0 0 0 10.179-29.2l10.521 2.979C36.045 58.51 29.5 70.752 21.256 78.776l-3.133-2.895-1.116 12.739h-11.4l3.264-37.306A69.664 69.664 0 0 1 3.007 57.6L0 54.127C6.78 43.538 14.752 24.6 17.636 10.12l11.755 2.98a109.188 109.188 0 0 1-7.326 17.7m31.332.166-4.068 46.486C48.3 89.2 37.4 91.431 24.986 83.657l1.614-5.212c9.722 1.573 10.6.331 11.035-4.632l3.749-42.846h-4.93a72.474 72.474 0 0 1-11.846 16.542l-3.722-3.226a139.286 139.286 0 0 0 11.527-33.169l11.4 2.647a96.967 96.967 0 0 1-4.374 11.249h20.409l3.852-2.648 10.077 6.288c-3.594 5.873-9.542 12.242-14.529 15.55l-3.278-3.061a76.83 76.83 0 0 0 4.13-10.173zm3.985 14.31c5.356 7.444 9.827 17.95 12.314 27.379l-11.447 4.964c-1.322-10.422-3.6-22.252-5.306-30.027z" transform="translate(0 3.563)" style="fill:#ef7ca4"/>
                <path data-name="Path 182" d="M128.33 15.633c-1.852 21.176-3.453 37.721-5.371 49.961-2.254 14.312-14.641 15.056-27.609 5.706l1.82-4.962c12.645 2.481 13.851 1.9 14.779-4.3.557-3.722 1.065-7.775 1.6-12.077l-9.719 5.46a205.891 205.891 0 0 0-5.53-20.514 50.171 50.171 0 0 1-4.651 5.626l-2.43-2.151-3.2 36.56H76.777l.588-6.7H71.2l-.71 8.106H59.1l5.3-60.549h8.471c.98-5.046 1.95-10.836 2.612-15.8l12.909 2.07A68.206 68.206 0 0 1 80.027 15.8H93.2l-1.544 17.618c4-9.677 7.537-23.657 9.239-33.418l12.45 2.069a102.966 102.966 0 0 1-4.654 13.565zM77.914 61.956l1.6-18.281h-6.162l-1.6 18.281zM81.4 22.087h-6.159l-1.352 15.467h6.16zM113.889 46.9c.834-7.775 1.573-16.212 2.263-24.981h-10.243a97.419 97.419 0 0 1-6.375 11.25l3.2-2.316A69 69 0 0 1 113.889 46.9" transform="translate(20.809)" style="fill:#ef7ca4"/>
                <path data-name="Path 183" d="M171.788 93.7c-10.32 0-11.624-1.82-10.887-10.257l2.389-27.3h-2.542c-1.444 17.371-7.291 33.169-24.382 40.118l-2.2-4.8c11.7-7.859 14.149-19.108 15.413-35.32h-5.545l1.374-15.716a93.313 93.313 0 0 1-7.308 12.328 52.6 52.6 0 0 1 9.934 9.679l-8.759 7.692c-.868-2.4-1.821-4.715-2.85-7.031l-2.86 32.673h-11.711l2.5-28.537a58.486 58.486 0 0 1-8.8 5.459l-2.121-4.8c9.016-7.114 14.483-15.882 19.738-27.544h-16.1l.521-5.956h10.018a114.309 114.309 0 0 0-4.777-14.062l4.181-2.895A39.563 39.563 0 0 1 137.6 30.254l-6.831 4.136h2.542l3.436-2.316 8.934 5.295 1.219-13.981h35.736l-2.867 32.757h-5.853L171.849 79.8c-.168 1.9.069 2.73 2.147 2.73s2.3-1.571 3.3-13.98h4.465c2.289 17.867 2.19 25.147-9.977 25.147m-15.51-43.675h12.478l1.798-20.512h-12.478z" transform="translate(39.944 6.139)" style="fill:#ef7ca4"/>
                <path data-name="Path 184" d="M198.412 50.717h40.356l-3.286 37.554h-11.4l.339-3.889H206.71l-.36 4.136H195.1l2.584-29.531-4.724 3.8-1.827-4.631-2.633 30.197h-11.1l2.476-28.288a77.385 77.385 0 0 1-7.2 4.8l-2.3-4.549a65.283 65.283 0 0 0 19.432-27.466h-15.48l.535-6.121h9.551a115.481 115.481 0 0 0-4.562-13.9l4.259-2.895a46.946 46.946 0 0 1 10.252 12.242l-7.408 4.55h3.388l2.807-2.15 9.478 5.211a77.951 77.951 0 0 1-10.013 17.618 33.435 33.435 0 0 1 5.6 5.541zM241.9 15.811l-.521 5.955H200.1l.522-5.955zM237.509 26.4l-1.724 19.687h-33.656l1.723-19.687zm-30.277 52.03h3.7l.746-8.52h-3.7zm1.252-14.311h3.7l.652-7.444h-3.7zm17.259-31.764H214.5l-.681 7.776h11.244zm-4.649 46.075h3.851l.745-8.52h-3.85zm1.252-14.311h3.854l.652-7.444H223z" transform="translate(59.999 3.499)" style="fill:#ef7ca4"/>
            </g>
        </g>
    </g>
</svg>
