<svg xmlns="http://www.w3.org/2000/svg" width="560.58" height="370.23" viewBox="0 0 560.58 370.23">
    <defs>
        <clipPath id="55nbids86a">
            <path data-name="Rectangle 5" style="fill:none" d="M0 0h560.58v370.23H0z"/>
        </clipPath>
        <filter id="ve3zsp4hrb" x="76.29" y="63.649" width="412" height="257.264" filterUnits="userSpaceOnUse">
            <feOffset dx="2" dy="3"/>
            <feGaussianBlur stdDeviation="20" result="blur"/>
            <feFlood flood-color="#ff3b00" flood-opacity=".302"/>
            <feComposite operator="in" in2="blur"/>
            <feComposite in="SourceGraphic"/>
        </filter>
    </defs>
    <g data-name="Group 3" style="clip-path:url(#55nbids86a)">
        <path data-name="Union 2" d="M87.93 109.722a59.76 59.76 0 0 1-28.594 7.225C26.565 116.947 0 90.767 0 58.474S26.565 0 59.335 0a59.55 59.55 0 0 1 46.6 22.277A60.16 60.16 0 0 1 166.087 24a58.443 58.443 0 0 1 43.7-19.462C241.936 4.534 268 30.217 268 61.9s-26.064 57.364-58.215 57.364a58.6 58.6 0 0 1-29.84-8.1 59.895 59.895 0 0 1-92.016-1.442z" transform="translate(226.29 167)" style="fill:#ff8992;opacity:.496"/>
        <path data-name="Union 3" d="M75.784 94.508a51.531 51.531 0 0 1-24.645 6.223C22.9 100.731 0 78.181 0 50.365S22.9 0 51.14 0a51.337 51.337 0 0 1 40.167 19.188 51.88 51.88 0 0 1 51.839 1.481 50.385 50.385 0 0 1 37.663-16.763c27.71 0 50.174 22.121 50.174 49.41s-22.464 49.41-50.174 49.41a50.527 50.527 0 0 1-25.718-6.976 51.643 51.643 0 0 1-79.306-1.242z" transform="translate(57.598 100.34)" style="fill:#ffeb4e;opacity:.699"/>
        <g style="filter:url(#ve3zsp4hrb)">
            <path data-name="Union 1" d="M184.356 112.7a65.473 65.473 0 0 1-73.611-.048 65.084 65.084 0 0 1-43.653 16.7C31.143 129.351 2 100.394 2 64.675S31.143 0 67.092 0a65.089 65.089 0 0 1 36.84 11.348 65.391 65.391 0 0 1 91.336 3.95 63.858 63.858 0 0 1 34.87-10.283c35.27 0 63.862 28.407 63.862 63.449s-28.592 63.448-63.862 63.448a63.883 63.883 0 0 1-45.782-19.212z" transform="translate(132.29 126)" style="fill:#fef6e9"/>
        </g>
        <g data-name="Path 24" style="stroke-linecap:round;stroke-linejoin:round;fill:#ef7ca4">
            <path d="M27.131 33.273a6.03 6.03 0 0 1-1.45-.193 8.455 8.455 0 0 1-3.795-2.058c-.8-.748-1.497-1.672-2.079-2.756a28.28 28.28 0 0 1-7.302 3.638l-.667.218-.262-.651-.38-.945a4.508 4.508 0 0 1-1.067 1.416c-.904.802-2.157 1.226-3.624 1.226-1.883 0-4.132-.687-6.504-1.988l-.546-.3.194-.59.575-1.761.196-.601.625.092c1.815.266 2.91.38 3.662.38.608 0 1.003-.08 1.143-.23.155-.167.214-.628.251-1.058l.358-4.077a59.774 59.774 0 0 1-5.189 1.732l-.742.207-.187-.749-1.069-4.295-.188-.757.764-.158A116.438 116.438 0 0 0 6.96 17.3l.417-4.756H.442l.071-.815.2-2.289.06-.685H7.707l.167-1.914c-1.581.236-3.327.42-5.302.561l-.756.054-.046-.756-.116-1.902-.04-.644.632-.135c5.23-1.117 9.67-2.69 13.195-4.673l.574-.323.394.528L18 1.676c.044-.495.093-1.018.146-1.571l.065-.679H23.978l-.08.822-.051.545L25.096-.2l.434-.344.456.312c2.179 1.492 4.518 3.852 5.959 6.012l.418.626-.628.415-2.92 1.934H32.8l-.071.816-.2 2.288-.06.685H26.59l.01.004 3.867 1.654.738.316-.365.715c-1.798 3.525-3.978 6.607-6.485 9.168.585 1.385 1.348 2.317 2.271 2.773.063.03.111.052.148.066.07-.131.194-.449.334-1.195.16-.854.311-2.1.493-4.042l.063-.68h3.234l.093.642c.738 5.109.392 8.406-1.058 10.08-.705.815-1.648 1.228-2.802 1.228zm-14.67-12.938-.704 8.034-.006.063c2.47-1.367 4.574-2.887 6.402-4.626-.446-1.848-.73-3.972-.851-6.354a42.322 42.322 0 0 1-4.842 2.883zm10.577-7.791a61.18 61.18 0 0 0 .053 5.135 42.428 42.428 0 0 0 2.532-4.754l.174-.381h-2.76zm-9.896 0-.256 2.93a92.63 92.63 0 0 0 3.498-1.282l.703-.271.15.392a66.11 66.11 0 0 1 .035-1.77h-4.13zm10.071-3.789h3.545c-.892-2.083-2.109-4.446-3.072-6.184-.17 1.964-.288 3.602-.402 5.201l-.071.983zm-9.74 0h3.976c.03-.399.058-.794.086-1.193.07-.981.141-1.978.23-3.096-1.132.43-2.48.843-4.024 1.237l-.267 3.052z" style="stroke:none" transform="rotate(-5.13 1404.47 -1743.737)"/>
            <path d="M27.131 32.523c3.402 0 4.004-4.317 3.118-10.45h-1.902c-.54 5.773-.905 6.337-2.053 5.773-1.283-.633-2.19-1.936-2.817-3.626 2.737-2.71 4.954-5.914 6.695-9.328l-3.868-1.655c-1.13 2.465-2.38 4.681-3.785 6.654-.274-2.5-.313-5.28-.207-8.097h9.47l.2-2.289h-9.576c.202-2.71.366-5.386.746-9.329h-4.26c-.4 4.19-.54 6.583-.746 9.33h-5.49l.384-4.401c2.014-.493 3.86-1.056 5.323-1.69L15.81 0C12.18 2.042 7.678 3.626 2.403 4.753l.117 1.9c1.984-.14 4.113-.351 6.186-.703l-.31 3.555H1.46l-.2 2.289h6.936l-.534 6.09A117.786 117.786 0 0 1 0 19.75l1.07 4.295c2.02-.563 4.125-1.302 6.241-2.146l-.462 5.28c-.179 2.041-.63 2.358-5.913 1.584l-.575 1.76c5.778 3.168 10.252 2.324 10.649-2.218l.74-8.45c2.026-1.02 3.919-2.146 5.535-3.309l-.63-1.653a86.287 86.287 0 0 1-4.616 1.653l.416-4.751h5.597c-.18 4.084-.04 8.518.934 12.25-2.117 2.077-4.595 3.838-7.437 5.351l.722 1.796a27.425 27.425 0 0 0 7.817-4.049c1.18 2.605 3.054 4.542 5.775 5.21.46.116.882.171 1.268.171m.416-23.827 3.774-2.5c-1.339-2.007-3.599-4.33-5.758-5.809l-1.55 1.232c1.158 2.042 2.572 4.788 3.534 7.077m-.416 25.327c-.51 0-1.058-.072-1.63-.215-2.458-.605-4.486-2.138-5.94-4.472a28.983 28.983 0 0 1-6.822 3.28 1.5 1.5 0 0 1-1.682-.544 5.055 5.055 0 0 1-.43.43c-1.043.927-2.468 1.416-4.122 1.416-2.009 0-4.383-.72-6.865-2.08a1.5 1.5 0 0 1-.704-1.782l.575-1.76a1.5 1.5 0 0 1 1.643-1.018c1.777.26 2.84.371 3.553.371.292 0 .471-.02.574-.038.021-.1.048-.272.073-.564l.254-2.895a57.453 57.453 0 0 1-4.136 1.337 1.5 1.5 0 0 1-1.859-1.083l-1.069-4.295a1.5 1.5 0 0 1 1.151-1.83c2.162-.449 4.365-.975 6.564-1.567l.3-3.42H1.26a1.5 1.5 0 0 1-1.494-1.63l.2-2.289a1.5 1.5 0 0 1 1.494-1.37h.41a1.5 1.5 0 0 1-.848-1.26l-.116-1.9a1.5 1.5 0 0 1 1.184-1.56c5.157-1.1 9.525-2.646 12.984-4.592a1.5 1.5 0 0 1 1.937.409l.455.609a1.5 1.5 0 0 1 1.426-1.035h4.26a1.5 1.5 0 0 1 1.27.702l.207-.165A1.5 1.5 0 0 1 26.41-.85C28.661.69 31.08 3.13 32.57 5.364a1.5 1.5 0 0 1-.42 2.083l-.843.558h.676a1.5 1.5 0 0 1 1.494 1.63l-.2 2.29a1.5 1.5 0 0 1-1.494 1.369H30.25l.512.219a1.5 1.5 0 0 1 .746 2.06 40.93 40.93 0 0 1-3.005 5h1.746a1.5 1.5 0 0 1 1.484 1.285c.348 2.408.459 4.469.329 6.125-.16 2.034-.67 3.524-1.562 4.554-.842.972-2.007 1.486-3.369 1.486zm-13.96-13.212-.546 6.248a29.36 29.36 0 0 0 4.7-3.505c-.321-1.435-.55-3.022-.687-4.754a44.575 44.575 0 0 1-3.467 2.01zm12.078 3.744c.32.65.683 1.159 1.088 1.521.028-.136.057-.294.088-.477.11-.66.22-1.548.34-2.755a34.324 34.324 0 0 1-1.516 1.71zM23.77 13.294c-.01.587-.014 1.158-.01 1.715.293-.552.58-1.123.862-1.715h-.852zm-9.94 0-.096 1.088c.744-.267 1.529-.56 2.38-.89a1.5 1.5 0 0 1 .385-.092l.002-.106H13.83zm10.189-5.289h1.586a69.696 69.696 0 0 0-1.379-2.829c-.07.924-.133 1.793-.194 2.65l-.013.18zm-9.727 0h2.46l.035-.496c.045-.634.09-1.275.141-1.95-.757.252-1.587.498-2.486.737l-.15 1.71zm-9.878 0h2.607l.025-.29c-.83.11-1.705.206-2.632.29z" style="fill:#fef6e9;stroke:none" transform="rotate(-5.13 1404.47 -1743.737)"/>
        </g>
        <g data-name="Path 25" style="stroke-linecap:round;stroke-linejoin:round;fill:#ef7ca4">
            <path d="M23.67 33.73c-2.148 0-4.714-.929-7.421-2.684l-.515-.334.225-.57.68-1.726.23-.587.619.128c2.276.468 3.637.668 4.549.668 1.312 0 1.574-.27 1.87-1.93.24-1.403.468-2.918.69-4.59l-3.74 1.97-.855.45-.223-.94c-.562-2.363-1.459-5.229-2.41-7.733a26.482 26.482 0 0 1-1.538 1.774l-.48.504-.539-.441-.018-.015-1.247 14.251-.06.685H7.756l.072-.816.19-2.177H5.264l-.257 2.942-.06.685H-.818l.07-.816 2.24-25.593.06-.685h4.11c.505-2.118.98-4.47 1.263-6.267l.119-.756.753.135 4.923.88.99.177-.451.897a39.509 39.509 0 0 1-2.98 4.934H15.8l-.072.816-.348 3.986c.975-2.564 2.139-6.238 3.09-11.028l.141-.716.72.123 4.752.81.81.138-.21.793c-.39 1.466-1.02 3.27-1.77 5.078h9.225l-.074.818c-.845 9.277-1.56 16.093-2.509 21.398-.305 1.711-.98 3.049-2.004 3.975-1.02.921-2.326 1.388-3.882 1.388zM5.586 25.934h2.755l.598-6.844H6.185l-.599 6.844zm14.05-13.327.165.16c1.902 1.84 3.876 4.525 5.106 6.89.335-2.807.663-6.029 1-9.825h-4.705a40.272 40.272 0 0 1-1.565 2.775zM6.505 15.443h2.754l.491-5.61H6.995l-.49 5.61z" style="stroke:none" transform="rotate(-5.13 1382.931 -2137.509)"/>
            <path d="M7.665 0c-.315 2.007-.867 4.682-1.413 6.9H2.24L0 32.494h4.26l.317-3.627h4.26l-.262 2.993H12.8l1.37-15.667 1.117.916c2.21-2.324 4.047-5.21 5.455-8.026h5.985c-.718 8.202-1.36 13.518-2.08 17.742-.484 2.711-1.156 3.134-7.31 1.866l-.68 1.725c6.296 4.084 11.194 3.238 12.161-2.182.894-5 1.602-11.477 2.5-21.334h-9.541c1.01-2.29 1.761-4.436 2.181-6.02L19.206.07c-.88 4.436-2.607 10.878-4.965 15.314l.741-8.484H8.787A38.36 38.36 0 0 0 12.588.88L7.665 0m2.28 16.193h-4.26l.623-7.11h4.26l-.622 7.11m-.918 10.492h-4.26l.73-8.344h4.26l-.73 8.344M19.28 13.307l-1.65 1.161c1.014 2.5 2.158 5.915 2.878 8.942l4.281-2.253c-1.109-2.605-3.4-5.809-5.51-7.85M7.666-1.5a1.5 1.5 0 0 1 .264.023l4.923.88a1.5 1.5 0 0 1 1.077 2.15A39.423 39.423 0 0 1 11.696 5.4h3.286a1.5 1.5 0 0 1 1.237.651 75.637 75.637 0 0 0 1.515-6.273 1.5 1.5 0 0 1 1.724-1.186l4.752.81a1.5 1.5 0 0 1 1.198 1.863c-.327 1.234-.803 2.656-1.382 4.135h7.292a1.5 1.5 0 0 1 1.493 1.636c-.846 9.297-1.563 16.13-2.516 21.462-.336 1.879-1.09 3.36-2.24 4.4-1.146 1.034-2.662 1.581-4.385 1.581-2.293 0-5-.97-7.83-2.804a1.5 1.5 0 0 1-.579-1.808l.68-1.725a1.5 1.5 0 0 1 1.698-.92c2.224.458 3.54.653 4.398.653.554 0 .757-.087.785-.118.076-.085.198-.361.347-1.19.166-.979.328-2.013.486-3.118l-2.448 1.289a1.5 1.5 0 0 1-2.158-.98c-.466-1.96-1.166-4.271-1.936-6.428-.244.28-.49.552-.739.812-.25.263-.573.416-.908.456l-1.172 13.393A1.5 1.5 0 0 1 12.8 33.36H8.575a1.5 1.5 0 0 1-1.494-1.63l.119-1.363H5.95l-.197 2.257a1.5 1.5 0 0 1-1.494 1.37H0a1.5 1.5 0 0 1-1.494-1.631L.745 6.77A1.5 1.5 0 0 1 2.239 5.4h2.829c.446-1.933.865-4.042 1.116-5.633A1.5 1.5 0 0 1 7.665-1.5zm1.266 12.083H7.682l-.36 4.11h1.249l.36-4.11zm16.156 0h-3.43c-.344.653-.702 1.29-1.07 1.906 1.369 1.372 2.727 3.097 3.832 4.83.223-2.025.443-4.254.668-6.736zM8.121 19.841H6.872l-.467 5.344h1.248l.468-5.344z" style="fill:#fef6e9;stroke:none" transform="rotate(-5.13 1382.931 -2137.509)"/>
        </g>
        <path data-name="Path 9" d="M195.534 99.607a4.767 4.767 0 1 1-4.768-4.768 4.768 4.768 0 0 1 4.768 4.768z" transform="translate(212.793 134.747)" style="stroke:#ef7ca4;stroke-linecap:round;stroke-linejoin:round;fill:none"/>
        <path data-name="Path 29" d="M190.879 97.279a2.44 2.44 0 1 1-2.44-2.44 2.44 2.44 0 0 1 2.44 2.44z" transform="rotate(2 -665.644 3309.485)" style="stroke:#ef7ca4;stroke-linecap:round;stroke-linejoin:round;fill:none"/>
        <path data-name="Path 15" d="M140.195 42.074a65.22 65.22 0 0 0-54.134 3.159 65.238 65.238 0 0 0-21.832-16.811" transform="rotate(-7 922.447 -1199.046)" style="stroke:#ef7ca4;stroke-linecap:round;stroke-linejoin:round;fill:none"/>
        <path data-name="Path 16" d="M218.832 126.652a64.9 64.9 0 0 0-88.487-91.041" transform="translate(187.4 103.178)" style="stroke:#ef7ca4;stroke-linecap:round;stroke-linejoin:round;fill:none"/>
        <path data-name="Path 17" d="M69.129 112.866a65.054 65.054 0 0 0 93.036-2.693 65.17 65.17 0 0 0 66-2.675" transform="rotate(10.02 -493.997 1079.28)" style="stroke:#ef7ca4;stroke-linecap:round;stroke-linejoin:round;fill:none"/>
        <path data-name="Path 18" d="M27.065 32.734a64.751 64.751 0 0 0 38.4 117.044" transform="rotate(-10.02 715.086 -598.072)" style="stroke:#ef7ca4;stroke-linecap:round;stroke-linejoin:round;fill:none"/>
        <path data-name="Path 19" d="M182.05 106.284a.907.907 0 1 1-.907-.907.907.907 0 0 1 .907.907" transform="translate(209.798 139.448)" style="fill:#e6619f"/>
        <path data-name="Path 21" d="M129.083 34.392a.907.907 0 1 1-.907-.907.908.908 0 0 1 .907.907" transform="translate(186.148 100.937)" style="fill:#e6619f"/>
        <path data-name="Path 22" d="M50.349 113.391a.907.907 0 1 1-.907-.907.907.907 0 0 1 .907.907" transform="rotate(-10.02 911.699 -741.196)" style="fill:#e6619f"/>
        <path data-name="Path 23" d="M73.951 110.18a4.814 4.814 0 1 1-4.813-4.813 4.813 4.813 0 0 1 4.813 4.813" transform="translate(152.339 142.025)" style="fill:#ffe200"/>
        <circle data-name="Ellipse 28" cx="4.807" cy="4.807" r="4.807" transform="translate(367.536 127.682)" style="fill:#56a1d9"/>
        <path data-name="Path 26" d="M76.522 22.271H64.59a44.258 44.258 0 0 1 4.326 7.707l-8.966 2.945h10.643l-1.6 18.271H46.177l-.485 5.542H72.54a168.6 168.6 0 0 1-3.24 18.617c-2.262 9.266-11.976 12.47-23.01 4.07l1.839-5.369c6.814 1.387 8.681 1.214 9.409-1.557a79.408 79.408 0 0 0 1.706-9.353H45.13l-2.287 26.151h-12.9l1.409-16.106C23.087 80.115 10.976 85.831 1 87.476l-1-5.2a70.633 70.633 0 0 0 27.232-19.132H17.8c-.746 2.078-1.476 3.984-2.185 5.629L4.672 65.74A174.807 174.807 0 0 0 13.1 42.189l10.644 2.771h10.078l.508-5.8h-22.9l.514-5.89a40.469 40.469 0 0 1-5.212 3.379l-2.94-4.159c6.258-7.014 10.4-15.673 13.1-24.421l12.417 2.771a55.16 55.16 0 0 1-2.793 5.2h16.367l-.546 6.235h-9.755a43.622 43.622 0 0 1 4.051 8.052l-8.208 2.6H40.6l-2.4-3.031C43.287 23.4 46.489 16.3 49.224 8.069L61.132 11.1a48.508 48.508 0 0 1-2.689 4.935h18.625zM12.381 32.923H26.49c-.058-3.031-.266-7.1-.681-10.652H22.5a56.425 56.425 0 0 1-10.119 10.652m20.9 18.271h-11.21l-1.937 5.542h12.658zm24.38-28.922h-3.633a49.584 49.584 0 0 1-11.011 10.651h15.562c-.188-3.377-.5-7.188-.922-10.652m.3 16.887H47.229l-.507 5.8h10.723z" transform="rotate(-2 4311.915 -4488.346)" style="fill:#ef7ca4"/>
        <path data-name="Path 27" d="M56.292 23.309h70.629l-.948 10.825H55.345z" transform="rotate(-2 4709.677 -5275.838)" style="fill:#ef7ca4"/>
        <path data-name="Path 28" d="M128.624 41.479c-3.588 11.516-9.119 25.891-14.257 33.945l-10.722-8.314a183.108 183.108 0 0 0 20.127-28.229zm-7.548-8.66a169.806 169.806 0 0 0-11.552-20l4.184-4.5c6.776 3.639 14.1 9.266 18.285 14.029zm57.84 35.59-9.881 13.421C162.2 76.981 154.31 63.04 153.7 48.838c-3.786 13.769-16.469 27.884-36.934 33.252l-1.707-5.368c21.332-11.6 27.46-27.278 29.284-44.423l.515-5.889h13.707c-.326 3.724-.935 8.833-1.606 12.816 4.294 16.366 11.477 23.64 21.957 29.182m-52.064-32.471C132.139 27.1 136.085 16.106 139.509 0l13.521 3.031a112.326 112.326 0 0 1-5.424 13.163h17.737l4.259-2.6 12.161 7.533c-3.809 6.668-10.578 15.847-17.719 21.908l-4.31-3.289a93.079 93.079 0 0 0 6.228-16.8h-21.931c-4.263 7.274-8.979 13.249-13.284 16.366z" transform="rotate(-2 4522.482 -6000.544)" style="fill:#ef7ca4"/>
    </g>
</svg>
